<?xml version="1.0" encoding="UTF-8" standalone="no"?><svg xmlns:serif="http://www.serif.com/" xmlns="http://www.w3.org/2000/svg" xmlns:xlink="http://www.w3.org/1999/xlink" id="Ebene_1" x="0px" y="0px" viewBox="0 0 1298.9 314.8" style="enable-background:new 0 0 1298.9 314.8;" xml:space="preserve"><style type="text/css">	.st0{fill:#696969;}	.st1{enable-background:new    ;}</style><g>	<g id="Nachhaltig">		<g id="Icon">			<path class="st0" d="M295.3,136.8l5.1,15.7H317l-13.4,9.8l5.1,15.7l-13.4-9.7l-13.4,9.8l5.1-15.7l-13.4-9.9h16.6L295.3,136.8    L295.3,136.8z"></path>			<path class="st0" d="M277,68.4l5.1,15.7h16.6l-13.4,9.8l5.1,15.7L277,99.9l-13.4,9.8l5.1-15.7l-13.4-9.8h16.6L277,68.4z"></path>			<path class="st0" d="M226.8,18.3l5.1,15.7h16.6l-13.4,9.8l5.1,15.7l-13.4-9.8l-13.3,9.8l5.1-15.7L205.3,34h16.6L226.8,18.3z"></path>			<path class="st0" d="M158.5,0l5.1,15.7h16.6l-13.4,9.8l5.1,15.7l-13.4-9.8l-13.4,9.8l5.1-15.7l-13.4-9.8h16.6L158.5,0z"></path>			<path class="st0" d="M90.1,18.3L95.2,34h16.6l-13.4,9.8l5.1,15.7l-13.4-9.7l-13.4,9.7l5.1-15.7L68.5,34H85L90.1,18.3z"></path>			<path class="st0" d="M40,68.4l5.1,15.7h16.6l-13.4,9.8l5.1,15.7L40,99.9l-13.4,9.8l5.1-15.7l-13.4-9.8h16.6L40,68.4z"></path>			<path class="st0" d="M277,205.2l5.1,15.7h16.6l-13.4,9.8l5.1,15.7l-13.4-9.8l-13.4,9.9l5.1-15.7l-13.4-9.8h16.6L277,205.2    L277,205.2z"></path>			<path class="st0" d="M21.7,136.8l5.1,15.7h16.6l-13.4,9.8L35,178l-13.4-9.8L8.3,178l5.1-15.7L0,152.5h16.6L21.7,136.8z"></path>			<path class="st0" d="M40,205.2l5.1,15.7h16.6l-13.4,9.8l5.1,15.7L40,236.7l-13.4,9.8l5.1-15.7L18.3,221h16.6L40,205.2z"></path>			<path class="st0" d="M90.1,255.3l5.1,15.7h16.6l-13.4,9.8l5.1,15.7l-13.4-9.8l-13.4,9.8l5.1-15.7L68.5,271H85L90.1,255.3z"></path>			<path class="st0" d="M158.5,273.6l5.1,15.7h16.6l-13.4,9.8l5.1,15.7l-13.4-9.8l-13.4,9.8l5.1-15.7l-13.4-9.8h16.6L158.5,273.6z"></path>			<path class="st0" d="M226.8,255.3l5.1,15.7h16.6l-13.4,9.8l5.1,15.7l-13.4-9.8l-13.4,9.8l5.1-15.7l-13.4-9.8h16.6L226.8,255.3z"></path>			<path class="st0" d="M235.3,135.2c-0.9-5.3-2.9-9.2-5.5-12.1c-3.9-4.4-8.9-6.7-13.7-9.7c-4.7-3-9.3-6.5-12.7-13.2    c-2.9-5.8-3.7-11.6-3.7-16.1c0-2.4,0.2-4.5,0.5-5.9c0.1-0.8,0.2-1.3,0.3-1.7c0-0.2,0.1-0.4,0.1-0.4v-0.1c0.2-0.6,0-1.1-0.5-1.5    c-0.5-0.4-1-0.5-1.5-0.2c-0.2,0.1-15.1,6.9-23.2,29.3c-0.8,2.2-1.6,4.7-2.2,7.2c-0.1,0.2-0.1,0.4-0.2,0.6    c-0.2,0.8-0.4,1.7-0.6,2.5c-0.3,1.3-0.5,2.5-0.6,3.8c-0.4,2.8-0.6,5.5-0.6,8.1c0,2.4,0.2,4.8,0.5,7.2c0.3,2,0.6,3.9,1,5.7    c1.4,6,3.7,11.2,6.5,15.6c2.1,3.4,4.7,6.3,7.2,8.6c0.6,0.6,1.3,1.1,2,1.7c1.9,1.4,3.8,2.5,5.7,3.3c0.6,0.3,1.2,0.5,1.8,0.6    c0.2,0.1,0.5,0.1,0.6,0.2c2.4,0.6,4.8,0.8,7.2,0.8h0.4c0-0.3,0.1-0.6,0.1-0.8v-0.6c0-0.5,0.1-0.9,0.1-1.5V166    c0-0.9,0-1.9-0.1-2.8c-0.1-1-0.2-2-0.3-3.2c-0.8-6.9-2.8-14.6-4.9-21.2c-0.6-2-1.3-3.9-1.9-5.7c-0.9-2.6-1.8-4.9-2.5-6.8    c129.8,84.2,129.8,84.1-0.1-0.2c-1-2.7-1.8-4.3-1.8-4.3c-0.1-0.2,0-0.4,0.2-0.5c0.2-0.1,0.4-0.1,0.5,0.1c0,0,4,4.1,8.4,11.6    c0.9,1.7,2,3.4,2.9,5.4c0.1,0.1,0.1,0.2,0.2,0.3c2.6,5.5,5,12.2,6.4,19.9c0.3,1.5,0.5,3,0.6,4.5c0,0.4,0.1,0.6,0.1,1v4.5    c-0.1,0.9-0.1,1.8-0.2,2.7c0,0.4-0.1,0.8-0.1,1.1c0,0.1,0,0.3-0.1,0.4c0,0.1,0,0.3-0.1,0.4c-0.1,0.8-0.3,1.7-0.5,2.5    c-0.1,0.6-0.3,1.4-0.5,2c-0.6,2.9-1.6,5.8-2.8,8.5c-0.9,2.1-2,4.3-3.2,6.3h-14.5c1.7-5.4,2.8-11.3,3.4-17.5    c-2-0.6-3.8-1.4-5.6-2.3c-0.6,7.2-2,13.9-3.9,19.8h-22.3v-23.8h20.8c-2-1.7-3.8-3.6-5.6-5.7h-15.2v-24.3h3.9    c-0.4-1.9-0.8-3.7-0.9-5.7h-3v-20.4c1.3,0.2,2.5,0.6,3.7,1.1c0.1-0.4,0.2-0.8,0.2-1c0.3-1.2,0.5-2.3,0.8-3.5    c0.1-0.4,0.2-0.6,0.3-1c0.6-2,1.1-4,1.9-5.9c-3.2-0.5-6.4-0.8-9.8-0.8c-35.3,0-64,28.7-64,64s28.7,64,64,64    c26.5,0,49.2-16.1,59-39.1c0.2-0.6,0.5-1.1,0.6-1.7c0.1-0.1,0.1-0.3,0.2-0.4c0.2-0.5,0.4-0.9,0.5-1.3c0-0.1,0.1-0.3,0.1-0.4    c0.2-0.6,0.4-1.1,0.6-1.7c0-0.1,0-0.2,0.1-0.2c0.2-0.5,0.3-1,0.5-1.5c0-0.2,0.1-0.3,0.1-0.5c0.1-0.5,0.3-1,0.4-1.5    c0-0.1,0.1-0.2,0.1-0.3c0.2-0.6,0.3-1.1,0.4-1.8c0-0.1,0.1-0.3,0.1-0.4c0.1-0.5,0.2-0.9,0.3-1.4c0-0.2,0.1-0.3,0.1-0.5    c0.1-0.6,0.2-1.2,0.3-1.8c0.2-1.2,0.4-2.4,0.5-3.6c0.2-2,0.3-4.1,0.3-6.1v-2.1c1-0.8,2-1.5,3-2.4c6-5.3,9.9-12.7,9.9-21.1    C235.8,138.4,235.6,136.8,235.3,135.2L235.3,135.2z M182.1,198.3c-0.8,2-1.8,3.7-2.8,5.5c-2.8,4.8-6,8.6-9.5,11.2    c-2.6,1.9-5.3,3.1-8.1,3.6v-20.2L182.1,198.3L182.1,198.3L182.1,198.3z M156.1,218.5c-2.8-0.5-5.5-1.7-8.1-3.6    c-4.7-3.4-9-9.2-12.3-16.6h20.4L156.1,218.5L156.1,218.5z M156.1,192.5h-22.5c-2.3-7.1-3.8-15.2-4.1-23.8h26.6V192.5z M156.1,163    h-26.7c0.2-8.8,1.7-17.1,4.1-24.3h22.6V163z M135.7,133c0.8-2,1.9-3.9,2.8-5.7c2.8-4.8,6-8.6,9.5-11.2c2.6-1.9,5.3-3.1,8.1-3.6    V133H135.7L135.7,133z M121.3,127.9c5.3-5.3,11.6-9.5,18.7-12.1c-4.3,4.5-7.8,10.4-10.5,17.3h-12.7    C118.1,131.2,119.7,129.5,121.3,127.9z M112.9,138.7h14.6c-2.2,7.4-3.5,15.6-3.8,24.3h-18C106.1,154.2,108.8,145.9,112.9,138.7z     M123.7,168.7c0.3,8.6,1.6,16.6,3.8,23.8H113c-4.2-7.1-6.7-15.2-7.2-23.8H123.7L123.7,168.7z M121.3,203.2    c-1.6-1.6-3-3.2-4.4-4.9h12.7c1.2,3,2.5,5.8,4,8.3c2,3.3,4.1,6.2,6.4,8.8C132.9,212.6,126.6,208.5,121.3,203.2L121.3,203.2z     M196.6,203.2c-5.3,5.3-11.6,9.5-18.7,12.1c4.2-4.5,7.7-10.3,10.4-17.1H201C199.6,199.9,198.2,201.6,196.6,203.2z"></path>		</g>	</g>	<g transform="matrix(1,0,0,1,-10,7)">		<g id="Ebene1">			<g>				<g class="st1">					<path class="st0" d="M431.6,74.7h-13.3c-0.5-2.8-1.5-5.3-2.9-7.5c-1.4-2.2-3.1-4-5.1-5.5c-2-1.5-4.3-2.6-6.7-3.4      c-2.5-0.8-5.1-1.1-7.9-1.1c-5,0-9.5,1.3-13.5,3.8c-4,2.5-7.1,6.2-9.4,11.1c-2.3,4.9-3.4,10.8-3.4,17.9c0,7.1,1.1,13.1,3.4,18      c2.3,4.9,5.4,8.6,9.4,11.1c4,2.5,8.4,3.7,13.4,3.7c2.8,0,5.4-0.4,7.9-1.1c2.5-0.8,4.7-1.9,6.7-3.3c2-1.5,3.7-3.3,5.1-5.4      c1.4-2.1,2.4-4.6,2.9-7.4l13.3,0c-0.7,4.3-2.1,8.2-4.1,11.8c-2,3.6-4.6,6.7-7.8,9.3c-3.2,2.6-6.8,4.6-10.8,6      c-4.1,1.4-8.5,2.1-13.3,2.1c-7.5,0-14.3-1.8-20.2-5.4c-5.9-3.6-10.6-8.7-13.9-15.4c-3.4-6.7-5.1-14.7-5.1-24      c0-9.3,1.7-17.3,5.1-24c3.4-6.7,8.1-11.8,14-15.4c5.9-3.6,12.6-5.4,20.1-5.4c4.6,0,8.9,0.7,13,2c4,1.3,7.6,3.2,10.8,5.8      c3.2,2.5,5.9,5.6,8,9.3C429.4,65.9,430.8,70,431.6,74.7z"></path>					<path class="st0" d="M473.8,134.9c-6.1,0-11.5-1.4-16-4.2c-4.6-2.8-8.1-6.7-10.6-11.8c-2.5-5.1-3.8-11-3.8-17.7      c0-6.8,1.3-12.7,3.8-17.8c2.5-5.1,6.1-9,10.6-11.8c4.6-2.8,9.9-4.2,16-4.2s11.5,1.4,16,4.2c4.6,2.8,8.1,6.8,10.6,11.8      c2.5,5.1,3.8,11,3.8,17.8c0,6.8-1.3,12.7-3.8,17.7c-2.5,5.1-6.1,9-10.6,11.8C485.3,133.5,480,134.9,473.8,134.9z M473.9,124.2      c4,0,7.3-1,9.9-3.1c2.6-2.1,4.5-4.9,5.8-8.4c1.3-3.5,1.9-7.3,1.9-11.5c0-4.2-0.6-8-1.9-11.5c-1.3-3.5-3.2-6.3-5.8-8.4      c-2.6-2.1-5.9-3.2-9.9-3.2c-4,0-7.3,1.1-9.9,3.2c-2.6,2.1-4.6,4.9-5.8,8.4c-1.3,3.5-1.9,7.3-1.9,11.5c0,4.2,0.6,8,1.9,11.5      c1.3,3.5,3.2,6.3,5.8,8.4C466.6,123.1,469.9,124.2,473.9,124.2z"></path>					<path class="st0" d="M518.5,133.5V68.2h12.3v10.4h0.7c1.2-3.5,3.3-6.3,6.3-8.3c3-2,6.4-3,10.3-3c0.8,0,1.7,0,2.8,0.1      c1.1,0.1,2,0.1,2.6,0.2v12.2c-0.5-0.1-1.4-0.3-2.7-0.5c-1.3-0.2-2.6-0.3-3.9-0.3c-3,0-5.7,0.6-8,1.9s-4.2,3-5.6,5.2      c-1.4,2.2-2,4.8-2,7.6v39.9H518.5z"></path>				</g>				<g class="st1">					<path class="st0" d="M570.2,158.1V68.2h12.4v10.6h1.1c0.7-1.4,1.8-2.9,3.2-4.7c1.4-1.8,3.3-3.4,5.8-4.7c2.5-1.3,5.7-2,9.8-2      c5.3,0,10,1.3,14.1,4c4.1,2.7,7.4,6.5,9.8,11.5c2.4,5,3.6,11.1,3.6,18.1s-1.2,13.1-3.5,18.2c-2.4,5-5.6,8.9-9.7,11.6      c-4.1,2.7-8.8,4.1-14.1,4.1c-4,0-7.2-0.7-9.7-2s-4.5-2.9-5.9-4.7c-1.4-1.8-2.5-3.4-3.3-4.8h-0.8v34.7H570.2z M582.7,100.8      c0,4.6,0.7,8.6,2,12.1c1.3,3.5,3.3,6.2,5.8,8.1c2.5,1.9,5.6,2.9,9.3,2.9c3.8,0,7-1,9.5-3c2.6-2,4.5-4.8,5.8-8.3      c1.3-3.5,2-7.4,2-11.8c0-4.3-0.6-8.2-1.9-11.6c-1.3-3.4-3.2-6.1-5.8-8.1c-2.6-2-5.8-3-9.6-3c-3.7,0-6.8,1-9.3,2.9      c-2.5,1.9-4.5,4.6-5.8,8C583.3,92.3,582.7,96.3,582.7,100.8z"></path>				</g>				<g class="st1">					<path class="st0" d="M672.7,134.9c-6.1,0-11.5-1.4-16-4.2c-4.6-2.8-8.1-6.7-10.6-11.8c-2.5-5.1-3.8-11-3.8-17.7      c0-6.8,1.3-12.7,3.8-17.8c2.5-5.1,6.1-9,10.6-11.8c4.6-2.8,9.9-4.2,16-4.2s11.5,1.4,16,4.2s8.1,6.8,10.6,11.8      c2.5,5.1,3.8,11,3.8,17.8c0,6.8-1.3,12.7-3.8,17.7c-2.5,5.1-6.1,9-10.6,11.8S678.8,134.9,672.7,134.9z M672.7,124.2      c4,0,7.3-1,9.9-3.1c2.6-2.1,4.5-4.9,5.8-8.4c1.3-3.5,1.9-7.3,1.9-11.5c0-4.2-0.6-8-1.9-11.5c-1.3-3.5-3.2-6.3-5.8-8.4      c-2.6-2.1-5.9-3.2-9.9-3.2c-4,0-7.3,1.1-9.9,3.2c-2.6,2.1-4.6,4.9-5.8,8.4c-1.3,3.5-1.9,7.3-1.9,11.5c0,4.2,0.6,8,1.9,11.5      c1.3,3.5,3.2,6.3,5.8,8.4C665.4,123.1,668.7,124.2,672.7,124.2z"></path>				</g>				<g class="st1">					<path class="st0" d="M717.5,133.5V68.2h12.3v10.4h0.7c1.2-3.5,3.3-6.3,6.3-8.3c3-2,6.4-3,10.3-3c0.8,0,1.7,0,2.8,0.1      c1.1,0.1,2,0.1,2.6,0.2v12.2c-0.5-0.1-1.4-0.3-2.7-0.5c-1.3-0.2-2.6-0.3-3.9-0.3c-3,0-5.7,0.6-8,1.9c-2.3,1.3-4.2,3-5.6,5.2      c-1.4,2.2-2,4.8-2,7.6v39.9H717.5z"></path>				</g>				<g class="st1">					<path class="st0" d="M786.1,135c-4.1,0-7.9-0.8-11.2-2.3c-3.3-1.5-6-3.8-7.9-6.7c-1.9-3-2.9-6.6-2.9-10.9      c0-3.7,0.7-6.7,2.1-9.1c1.4-2.4,3.3-4.3,5.7-5.7c2.4-1.4,5.1-2.4,8.1-3.2c3-0.7,6-1.2,9.1-1.6c3.9-0.5,7.1-0.8,9.5-1.1      c2.4-0.3,4.2-0.8,5.3-1.5c1.1-0.7,1.7-1.8,1.7-3.3v-0.3c0-3.7-1-6.6-3.1-8.6c-2.1-2-5.2-3.1-9.3-3.1c-4.3,0-7.7,0.9-10.1,2.8      c-2.5,1.9-4.2,4-5.1,6.3L766,84c1.4-4,3.5-7.2,6.2-9.6c2.7-2.5,5.9-4.2,9.5-5.4c3.6-1.1,7.3-1.7,11.3-1.7      c2.6,0,5.4,0.3,8.3,0.9c2.9,0.6,5.7,1.7,8.3,3.3c2.6,1.6,4.7,3.9,6.3,6.9c1.6,3,2.5,6.9,2.5,11.6v43.4h-12.4v-8.9h-0.5      c-0.8,1.6-2.1,3.3-3.7,4.9c-1.6,1.6-3.8,2.9-6.3,4C792.8,134.5,789.7,135,786.1,135z M788.8,124.8c3.5,0,6.5-0.7,9-2.1      c2.5-1.4,4.4-3.2,5.7-5.5c1.3-2.3,2-4.7,2-7.3v-8.4c-0.5,0.5-1.3,0.9-2.6,1.3c-1.3,0.4-2.8,0.7-4.4,1c-1.6,0.3-3.2,0.5-4.8,0.7      s-2.9,0.4-3.9,0.5c-2.5,0.3-4.7,0.8-6.7,1.6c-2,0.7-3.6,1.8-4.9,3.2c-1.2,1.4-1.8,3.2-1.8,5.5c0,3.2,1.2,5.5,3.5,7.1      C782.3,124,785.2,124.8,788.8,124.8z"></path>				</g>				<g class="st1">					<path class="st0" d="M865.8,68.2v10.2h-35.7V68.2H865.8z M839.7,52.5h12.7v61.9c0,2.5,0.4,4.3,1.1,5.6c0.7,1.2,1.7,2.1,2.9,2.5      c1.2,0.4,2.5,0.7,3.9,0.7c1,0,1.9-0.1,2.7-0.2c0.8-0.1,1.4-0.3,1.8-0.3L867,133c-0.7,0.3-1.8,0.6-3.1,0.9s-3.1,0.5-5.1,0.5      c-3.3,0.1-6.5-0.5-9.4-1.8s-5.2-3.2-7-5.8c-1.8-2.6-2.7-5.9-2.7-9.8V52.5z"></path>				</g>				<g class="st1">					<path class="st0" d="M905.9,134.9c-6.4,0-12-1.4-16.6-4.2c-4.6-2.8-8.2-6.7-10.7-11.7c-2.5-5-3.8-10.9-3.8-17.7      c0-6.7,1.3-12.6,3.8-17.7s6-9.1,10.6-12c4.5-2.9,9.8-4.3,15.9-4.3c3.7,0,7.3,0.6,10.7,1.8c3.5,1.2,6.6,3.1,9.3,5.7      c2.8,2.6,4.9,6,6.5,10.2c1.6,4.2,2.4,9.2,2.4,15.1v4.5h-52v-9.5h39.5c0-3.3-0.7-6.3-2-8.9s-3.3-4.6-5.7-6.2      c-2.5-1.5-5.3-2.3-8.6-2.3c-3.6,0-6.7,0.9-9.3,2.6s-4.7,4-6.1,6.8c-1.4,2.8-2.1,5.8-2.1,9.1v7.4c0,4.4,0.8,8.1,2.3,11.2      c1.5,3.1,3.7,5.4,6.5,7c2.8,1.6,6,2.4,9.7,2.4c2.4,0,4.6-0.3,6.6-1c2-0.7,3.7-1.7,5.2-3.1c1.4-1.4,2.6-3.1,3.3-5.2l12,2.2      c-1,3.5-2.7,6.6-5.2,9.3c-2.5,2.7-5.6,4.7-9.3,6.2C914.9,134.1,910.7,134.9,905.9,134.9z"></path>				</g>				<g>					<path class="st0" d="M1029.3,69.3c-0.5-4-2.3-7.2-5.6-9.4c-3.3-2.2-7.4-3.3-12.4-3.3c-3.6,0-6.7,0.6-9.3,1.7s-4.6,2.7-6.1,4.6      c-1.4,1.9-2.2,4.2-2.2,6.6c0,2.1,0.5,3.9,1.5,5.4c1,1.5,2.3,2.8,3.9,3.8c1.6,1,3.3,1.8,5.2,2.5c1.8,0.7,3.6,1.2,5.3,1.6      l8.5,2.2c2.8,0.7,5.6,1.6,8.6,2.8c2.9,1.2,5.6,2.7,8.1,4.6c2.5,1.9,4.5,4.3,6.1,7.1s2.3,6.2,2.3,10.1c0,4.9-1.3,9.3-3.8,13.2      c-2.5,3.8-6.2,6.9-11,9.1c-4.8,2.2-10.6,3.3-17.4,3.3c-6.5,0-12.2-1-16.9-3.1s-8.5-5-11.2-8.8c-2.7-3.8-4.2-8.4-4.5-13.6h13.2      c0.3,3.1,1.3,5.8,3.1,7.9c1.8,2.1,4.1,3.6,6.9,4.6c2.8,1,5.9,1.5,9.3,1.5c3.7,0,7-0.6,9.9-1.8c2.9-1.2,5.2-2.8,6.9-4.9      c1.7-2.1,2.5-4.6,2.5-7.4c0-2.6-0.7-4.7-2.2-6.3c-1.5-1.6-3.4-3-5.9-4.1c-2.5-1.1-5.3-2-8.4-2.9l-10.3-2.8      c-7-1.9-12.5-4.7-16.6-8.4c-4.1-3.7-6.1-8.6-6.1-14.6c0-5,1.4-9.4,4.1-13.2s6.4-6.7,11.1-8.7c4.7-2.1,9.9-3.1,15.8-3.1      c5.9,0,11.1,1,15.6,3.1c4.5,2.1,8.1,4.9,10.7,8.5c2.6,3.6,4,7.8,4.1,12.5H1029.3z"></path>					<path class="st0" d="M1085.4,134.9c-6.1,0-11.5-1.4-16-4.2s-8.1-6.7-10.6-11.8c-2.5-5.1-3.8-11-3.8-17.7      c0-6.8,1.3-12.7,3.8-17.8c2.5-5.1,6.1-9,10.6-11.8s9.9-4.2,16-4.2s11.5,1.4,16,4.2s8.1,6.8,10.6,11.8c2.5,5.1,3.8,11,3.8,17.8      c0,6.8-1.3,12.7-3.8,17.7c-2.5,5.1-6.1,9-10.6,11.8S1091.5,134.9,1085.4,134.9z M1085.4,124.2c4,0,7.3-1,9.9-3.1      c2.6-2.1,4.5-4.9,5.8-8.4s1.9-7.3,1.9-11.5c0-4.2-0.6-8-1.9-11.5c-1.3-3.5-3.2-6.3-5.8-8.4c-2.6-2.1-5.9-3.2-9.9-3.2      c-4,0-7.3,1.1-9.9,3.2c-2.6,2.1-4.6,4.9-5.8,8.4c-1.3,3.5-1.9,7.3-1.9,11.5c0,4.2,0.6,8,1.9,11.5s3.2,6.3,5.8,8.4      C1078.1,123.1,1081.4,124.2,1085.4,124.2z"></path>					<path class="st0" d="M1157.6,134.9c-6.3,0-11.8-1.4-16.3-4.3s-8.1-6.9-10.5-11.9c-2.4-5.1-3.7-10.9-3.7-17.5      c0-6.6,1.2-12.5,3.7-17.6c2.5-5.1,6-9.1,10.6-11.9c4.5-2.9,9.9-4.3,16-4.3c5,0,9.4,0.9,13.3,2.7c3.9,1.8,7,4.4,9.4,7.7      c2.4,3.3,3.8,7.1,4.3,11.5h-12.4c-0.7-3.1-2.2-5.7-4.7-7.9c-2.4-2.2-5.7-3.3-9.7-3.3c-3.5,0-6.6,0.9-9.3,2.8      c-2.7,1.9-4.7,4.5-6.2,7.9c-1.5,3.4-2.2,7.5-2.2,12.1c0,4.8,0.7,8.9,2.2,12.3s3.5,6.1,6.2,8c2.7,1.9,5.8,2.9,9.4,2.9      c2.4,0,4.6-0.4,6.6-1.3c2-0.9,3.6-2.2,5-3.9c1.3-1.7,2.3-3.7,2.8-6h12.4c-0.5,4.2-1.8,8-4.1,11.3s-5.4,5.9-9.2,7.8      C1167.3,133.9,1162.8,134.9,1157.6,134.9z"></path>					<path class="st0" d="M1204.5,58.1c-2.2,0-4.1-0.7-5.7-2.2c-1.6-1.5-2.4-3.3-2.4-5.3c0-2.1,0.8-3.9,2.4-5.4      c1.6-1.5,3.5-2.2,5.7-2.2s4.1,0.7,5.7,2.2s2.4,3.3,2.4,5.3c0,2.1-0.8,3.9-2.4,5.4C1208.6,57.3,1206.8,58.1,1204.5,58.1z       M1198.1,133.5V68.2h12.7v65.4H1198.1z"></path>					<path class="st0" d="M1247,135c-4.1,0-7.9-0.8-11.2-2.3c-3.3-1.5-6-3.8-7.9-6.7c-1.9-3-2.9-6.6-2.9-10.9c0-3.7,0.7-6.7,2.1-9.1      c1.4-2.4,3.3-4.3,5.7-5.7c2.4-1.4,5.1-2.4,8.1-3.2c3-0.7,6-1.2,9.1-1.6c3.9-0.5,7.1-0.8,9.5-1.1c2.4-0.3,4.2-0.8,5.3-1.5      c1.1-0.7,1.7-1.8,1.7-3.3v-0.3c0-3.7-1-6.6-3.1-8.6c-2.1-2-5.2-3.1-9.3-3.1c-4.3,0-7.7,0.9-10.1,2.8c-2.5,1.9-4.2,4-5.1,6.3      l-12-2.7c1.4-4,3.5-7.2,6.2-9.6c2.7-2.5,5.9-4.2,9.5-5.4c3.6-1.1,7.3-1.7,11.3-1.7c2.6,0,5.4,0.3,8.3,0.9      c2.9,0.6,5.7,1.7,8.3,3.3c2.6,1.6,4.7,3.9,6.3,6.9c1.6,3,2.5,6.9,2.5,11.6v43.4h-12.4v-8.9h-0.5c-0.8,1.6-2.1,3.3-3.7,4.9      c-1.6,1.6-3.8,2.9-6.3,4C1253.7,134.5,1250.6,135,1247,135z M1249.7,124.8c3.5,0,6.5-0.7,9-2.1c2.5-1.4,4.4-3.2,5.7-5.5      c1.3-2.3,2-4.7,2-7.3v-8.4c-0.5,0.5-1.3,0.9-2.6,1.3c-1.3,0.4-2.8,0.7-4.4,1c-1.6,0.3-3.2,0.5-4.8,0.7s-2.9,0.4-3.9,0.5      c-2.5,0.3-4.7,0.8-6.7,1.6c-2,0.7-3.6,1.8-4.9,3.2c-1.2,1.4-1.8,3.2-1.8,5.5c0,3.2,1.2,5.5,3.5,7.1      C1243.2,124,1246.1,124.8,1249.7,124.8z"></path>					<path class="st0" d="M1308.9,46.4v87.2h-12.7V46.4H1308.9z"></path>				</g>				<g class="st1">					<path class="st0" d="M359.2,267.4v-87.2h31.1c6.8,0,12.4,1.2,16.8,3.5c4.5,2.3,7.8,5.5,10,9.6c2.2,4.1,3.3,8.8,3.3,14.2      c0,5.3-1.1,10-3.3,14.1c-2.2,4-5.6,7.2-10,9.4c-4.5,2.2-10.1,3.4-16.8,3.4h-23.5V223H389c4.3,0,7.7-0.6,10.4-1.8      c2.7-1.2,4.6-3,5.9-5.3c1.2-2.3,1.9-5.1,1.9-8.4c0-3.3-0.6-6.1-1.9-8.6c-1.3-2.4-3.2-4.3-5.9-5.6c-2.7-1.3-6.2-1.9-10.5-1.9      h-16.5v75.9H359.2z M402.2,228l21.5,39.3h-15L387.6,228H402.2z"></path>					<path class="st0" d="M462.8,268.7c-6.4,0-12-1.4-16.6-4.2c-4.6-2.8-8.2-6.7-10.7-11.7c-2.5-5-3.8-10.9-3.8-17.7      c0-6.7,1.3-12.6,3.8-17.7c2.5-5.1,6-9.1,10.6-12c4.5-2.9,9.8-4.3,15.9-4.3c3.7,0,7.3,0.6,10.7,1.8c3.5,1.2,6.6,3.1,9.3,5.7      c2.8,2.6,4.9,6,6.5,10.2c1.6,4.2,2.4,9.2,2.4,15.1v4.5h-52V229h39.5c0-3.3-0.7-6.3-2-8.9c-1.4-2.6-3.3-4.6-5.7-6.2      c-2.5-1.5-5.3-2.3-8.6-2.3c-3.6,0-6.7,0.9-9.3,2.6c-2.7,1.7-4.7,4-6.1,6.8c-1.4,2.8-2.1,5.8-2.1,9.1v7.4      c0,4.4,0.8,8.1,2.3,11.2c1.5,3.1,3.7,5.4,6.5,7c2.8,1.6,6,2.4,9.7,2.4c2.4,0,4.6-0.3,6.6-1c2-0.7,3.7-1.7,5.2-3.1      c1.4-1.4,2.6-3.1,3.3-5.2l12,2.2c-1,3.5-2.7,6.6-5.2,9.3c-2.5,2.7-5.6,4.7-9.3,6.2C471.8,267.9,467.6,268.7,462.8,268.7z"></path>					<path class="st0" d="M554,217.9l-11.5,2c-0.5-1.5-1.2-2.9-2.3-4.2c-1-1.3-2.4-2.4-4.2-3.3c-1.8-0.9-4-1.3-6.6-1.3      c-3.6,0-6.6,0.8-9,2.4c-2.4,1.6-3.6,3.7-3.6,6.2c0,2.2,0.8,3.9,2.4,5.3c1.6,1.3,4.2,2.4,7.8,3.3l10.4,2.4      c6,1.4,10.5,3.5,13.5,6.4c3,2.9,4.4,6.7,4.4,11.3c0,3.9-1.1,7.4-3.4,10.5c-2.3,3.1-5.4,5.4-9.4,7.2c-4,1.7-8.7,2.6-13.9,2.6      c-7.3,0-13.3-1.6-17.9-4.7c-4.6-3.1-7.5-7.6-8.5-13.4l12.3-1.9c0.8,3.2,2.3,5.6,4.7,7.3c2.4,1.6,5.5,2.4,9.3,2.4      c4.2,0,7.5-0.9,10-2.6c2.5-1.7,3.7-3.9,3.7-6.4c0-2-0.8-3.8-2.3-5.2c-1.5-1.4-3.8-2.4-7-3.1l-11.1-2.4      c-6.1-1.4-10.6-3.6-13.5-6.6c-2.9-3-4.4-6.9-4.4-11.5c0-3.9,1.1-7.2,3.2-10.1c2.2-2.9,5.1-5.2,8.9-6.8      c3.8-1.6,8.2-2.4,13.1-2.4c7.1,0,12.6,1.5,16.7,4.6C550.1,208.7,552.7,212.8,554,217.9z"></path>					<path class="st0" d="M569.3,291.9V202h12.4v10.6h1.1c0.7-1.4,1.8-2.9,3.2-4.7c1.4-1.8,3.3-3.4,5.8-4.7c2.5-1.3,5.7-2,9.8-2      c5.3,0,10,1.3,14.1,4c4.1,2.7,7.4,6.5,9.8,11.5c2.4,5,3.6,11.1,3.6,18.1s-1.2,13.1-3.5,18.2c-2.4,5-5.6,8.9-9.7,11.6      c-4.1,2.7-8.8,4.1-14.1,4.1c-4,0-7.2-0.7-9.7-2s-4.5-2.9-5.9-4.7c-1.4-1.8-2.5-3.4-3.3-4.8H582v34.7H569.3z M581.8,234.7      c0,4.6,0.7,8.6,2,12.1c1.3,3.5,3.3,6.2,5.8,8.1c2.5,1.9,5.6,2.9,9.3,2.9c3.8,0,7-1,9.5-3c2.6-2,4.5-4.8,5.8-8.3      c1.3-3.5,2-7.4,2-11.8c0-4.3-0.6-8.2-1.9-11.6c-1.3-3.4-3.2-6.1-5.8-8.1c-2.6-2-5.8-3-9.6-3c-3.7,0-6.8,1-9.3,2.9      c-2.5,1.9-4.5,4.6-5.8,8C582.4,226.1,581.8,230.1,581.8,234.7z"></path>					<path class="st0" d="M670.8,268.7c-6.1,0-11.5-1.4-16-4.2c-4.6-2.8-8.1-6.7-10.6-11.8c-2.5-5.1-3.8-11-3.8-17.7      c0-6.8,1.3-12.7,3.8-17.8c2.5-5.1,6.1-9,10.6-11.8c4.6-2.8,9.9-4.2,16-4.2s11.5,1.4,16,4.2c4.6,2.8,8.1,6.8,10.6,11.8      c2.5,5.1,3.8,11,3.8,17.8c0,6.8-1.3,12.7-3.8,17.7c-2.5,5.1-6.1,9-10.6,11.8C682.3,267.3,676.9,268.7,670.8,268.7z M670.8,258      c4,0,7.3-1,9.9-3.2c2.6-2.1,4.5-4.9,5.8-8.4c1.3-3.5,1.9-7.3,1.9-11.5c0-4.2-0.6-8-1.9-11.5c-1.3-3.5-3.2-6.3-5.8-8.5      c-2.6-2.1-5.9-3.2-9.9-3.2c-4,0-7.3,1.1-9.9,3.2c-2.6,2.1-4.6,4.9-5.8,8.5c-1.3,3.5-1.9,7.3-1.9,11.5c0,4.2,0.6,8,1.9,11.5      c1.3,3.5,3.2,6.3,5.8,8.4C663.5,256.9,666.8,258,670.8,258z"></path>					<path class="st0" d="M728.2,228.5v38.8h-12.7V202h12.2v10.6h0.8c1.5-3.5,3.9-6.2,7.1-8.3c3.2-2.1,7.3-3.2,12.2-3.2      c4.5,0,8.4,0.9,11.7,2.8s5.9,4.6,7.8,8.3s2.8,8.2,2.8,13.6v41.6h-12.7v-40.1c0-4.7-1.2-8.4-3.7-11.1c-2.5-2.7-5.9-4-10.2-4      c-3,0-5.6,0.6-7.9,1.9s-4.1,3.1-5.4,5.6C728.8,222.1,728.2,225.1,728.2,228.5z"></path>					<path class="st0" d="M836.1,217.9l-11.5,2c-0.5-1.5-1.2-2.9-2.3-4.2c-1-1.3-2.4-2.4-4.2-3.3s-4-1.3-6.6-1.3      c-3.6,0-6.6,0.8-9,2.4c-2.4,1.6-3.6,3.7-3.6,6.2c0,2.2,0.8,3.9,2.4,5.3c1.6,1.3,4.2,2.4,7.8,3.3l10.4,2.4      c6,1.4,10.5,3.5,13.5,6.4c3,2.9,4.4,6.7,4.4,11.3c0,3.9-1.1,7.4-3.4,10.5c-2.3,3.1-5.4,5.4-9.4,7.2c-4,1.7-8.7,2.6-13.9,2.6      c-7.3,0-13.3-1.6-17.9-4.7c-4.6-3.1-7.5-7.6-8.5-13.4l12.3-1.9c0.8,3.2,2.3,5.6,4.7,7.3c2.4,1.6,5.5,2.4,9.3,2.4      c4.2,0,7.5-0.9,10-2.6c2.5-1.7,3.7-3.9,3.7-6.4c0-2-0.8-3.8-2.3-5.2c-1.5-1.4-3.8-2.4-7-3.1l-11.1-2.4      c-6.1-1.4-10.6-3.6-13.5-6.6c-2.9-3-4.4-6.9-4.4-11.5c0-3.9,1.1-7.2,3.2-10.1c2.2-2.9,5.1-5.2,8.9-6.8      c3.8-1.6,8.2-2.4,13.1-2.4c7.1,0,12.6,1.5,16.7,4.6C832.1,208.7,834.7,212.8,836.1,217.9z"></path>					<path class="st0" d="M857.7,191.9c-2.2,0-4.1-0.7-5.7-2.2c-1.6-1.5-2.4-3.3-2.4-5.3c0-2.1,0.8-3.9,2.4-5.4      c1.6-1.5,3.5-2.2,5.7-2.2s4.1,0.7,5.7,2.2s2.4,3.3,2.4,5.3c0,2.1-0.8,3.9-2.4,5.4C861.8,191.1,859.9,191.9,857.7,191.9z       M851.3,267.4V202H864v65.4H851.3z"></path>					<path class="st0" d="M882.2,267.4v-87.2h12.7v32.4h0.8c0.7-1.4,1.8-2.9,3.2-4.7c1.4-1.8,3.3-3.4,5.8-4.7c2.5-1.3,5.7-2,9.8-2      c5.3,0,10,1.3,14.1,4c4.1,2.7,7.4,6.5,9.8,11.5s3.6,11.1,3.6,18.1s-1.2,13.1-3.5,18.2c-2.4,5-5.6,8.9-9.7,11.6      c-4.1,2.7-8.8,4.1-14.1,4.1c-4,0-7.2-0.7-9.7-2s-4.5-2.9-5.9-4.7s-2.5-3.4-3.3-4.8h-1.1v10.2H882.2z M894.6,234.7      c0,4.6,0.7,8.6,2,12.1c1.3,3.5,3.3,6.2,5.8,8.1c2.5,1.9,5.6,2.9,9.3,2.9c3.8,0,7-1,9.5-3c2.6-2,4.5-4.8,5.8-8.3      c1.3-3.5,2-7.4,2-11.8c0-4.3-0.6-8.2-1.9-11.6c-1.3-3.4-3.2-6.1-5.8-8.1s-5.8-3-9.6-3c-3.7,0-6.8,1-9.3,2.9s-4.5,4.6-5.8,8      C895.3,226.1,894.6,230.1,894.6,234.7z"></path>					<path class="st0" d="M962.6,191.9c-2.2,0-4.1-0.7-5.7-2.2c-1.6-1.5-2.4-3.3-2.4-5.3c0-2.1,0.8-3.9,2.4-5.4      c1.6-1.5,3.5-2.2,5.7-2.2s4.1,0.7,5.7,2.2s2.4,3.3,2.4,5.3c0,2.1-0.8,3.9-2.4,5.4C966.7,191.1,964.8,191.9,962.6,191.9z       M956.1,267.4V202h12.7v65.4H956.1z"></path>					<path class="st0" d="M998.7,180.2v87.2H986v-87.2H998.7z"></path>					<path class="st0" d="M1022.2,191.9c-2.2,0-4.1-0.7-5.7-2.2c-1.6-1.5-2.4-3.3-2.4-5.3c0-2.1,0.8-3.9,2.4-5.4      c1.6-1.5,3.5-2.2,5.7-2.2s4.1,0.7,5.7,2.2s2.4,3.3,2.4,5.3c0,2.1-0.8,3.9-2.4,5.4C1026.4,191.1,1024.5,191.9,1022.2,191.9z       M1015.8,267.4V202h12.7v65.4H1015.8z"></path>					<path class="st0" d="M1076.2,202v10.2h-35.7V202H1076.2z M1050,186.3h12.7v61.9c0,2.5,0.4,4.3,1.1,5.6s1.7,2.1,2.9,2.5      c1.2,0.4,2.5,0.7,3.9,0.7c1,0,1.9-0.1,2.7-0.2c0.8-0.1,1.4-0.3,1.8-0.3l2.3,10.5c-0.7,0.3-1.8,0.6-3.1,0.9      c-1.4,0.3-3.1,0.5-5.1,0.5c-3.3,0.1-6.5-0.5-9.4-1.8s-5.2-3.2-7-5.8c-1.8-2.6-2.7-5.9-2.7-9.8V186.3z"></path>					<path class="st0" d="M1098.3,291.9c-1.9,0-3.6-0.1-5.2-0.4s-2.7-0.6-3.5-1l3.1-10.4c2.3,0.6,4.4,0.9,6.2,0.8      c1.8-0.1,3.4-0.8,4.8-2s2.6-3.4,3.7-6.3l1.6-4.3l-23.9-66.2h13.6l16.6,50.7h0.7l16.6-50.7h13.7l-26.9,74.1      c-1.2,3.4-2.8,6.3-4.8,8.7c-1.9,2.4-4.2,4.2-6.9,5.3C1104.9,291.3,1101.8,291.9,1098.3,291.9z"></path>				</g>			</g>		</g>	</g></g></svg>