<?xml version="1.0" encoding="UTF-8" standalone="no"?><svg xmlns="http://www.w3.org/2000/svg" id="Ebene_1" data-name="Ebene 1" viewBox="0 0 439.45 132.17"><defs><style>      .cls-1 {        fill: #696969;      }      .cls-2 {        fill: #fff;      }    </style></defs><g><path class="cls-1" d="m153.06,104.13h3.55c.8,0,1.53.13,2.2.39.67.26,1.24.62,1.72,1.07.48.46.85,1,1.12,1.62.26.62.39,1.29.39,2.01v.03c0,.72-.13,1.39-.39,2.02s-.64,1.17-1.12,1.62c-.48.46-1.06.82-1.72,1.08-.67.26-1.4.39-2.2.39h-3.55v-10.23Zm3.55,9.16c.64,0,1.23-.1,1.75-.31.53-.2.97-.49,1.34-.85.37-.36.65-.79.85-1.28.2-.49.3-1.02.3-1.58v-.03c0-.56-.1-1.09-.3-1.59-.2-.49-.48-.92-.85-1.29-.37-.37-.81-.65-1.34-.86-.53-.21-1.11-.31-1.75-.31h-2.4v8.1h2.4Z"></path><path class="cls-1" d="m168.27,104.06h1.08l4.66,10.3h-1.24l-1.2-2.7h-5.57l-1.21,2.7h-1.18l4.66-10.3Zm2.85,6.56l-2.32-5.22-2.34,5.22h4.66Z"></path><path class="cls-1" d="m178.74,105.2h-3.43v-1.07h8.02v1.07h-3.43v9.16h-1.15v-9.16Z"></path><path class="cls-1" d="m185.5,104.13h7.39v1.04h-6.24v3.52h5.58v1.04h-5.58v3.59h6.31v1.04h-7.47v-10.23Z"></path><path class="cls-1" d="m195.29,104.13h1.08l6.44,8.2v-8.2h1.13v10.23h-.92l-6.61-8.39v8.39h-1.12v-10.23Z"></path><path class="cls-1" d="m210.36,114.51c-.82,0-1.57-.13-2.24-.4-.68-.27-1.32-.68-1.94-1.23l.72-.85c.54.49,1.08.85,1.62,1.09.54.24,1.17.36,1.88.36s1.24-.16,1.66-.49c.41-.33.62-.74.62-1.25v-.03c0-.23-.04-.45-.12-.64-.08-.19-.22-.36-.41-.52-.2-.16-.47-.3-.81-.42-.35-.13-.79-.25-1.33-.37-.59-.13-1.1-.27-1.53-.44-.43-.17-.79-.37-1.08-.6-.28-.23-.49-.51-.63-.82s-.2-.68-.2-1.1v-.03c0-.4.08-.77.25-1.11.17-.34.4-.64.7-.88.3-.25.66-.44,1.07-.58.41-.14.86-.21,1.34-.21.75,0,1.41.1,1.97.31.56.21,1.1.52,1.63.94l-.67.89c-.48-.39-.96-.67-1.44-.85-.48-.18-.99-.26-1.51-.26-.67,0-1.2.16-1.59.48-.39.32-.58.71-.58,1.18v.03c0,.24.04.46.12.65.08.19.22.37.42.53.2.16.49.31.85.44.36.13.82.26,1.39.37,1.14.25,1.98.6,2.52,1.05.54.45.81,1.06.81,1.84v.03c0,.44-.09.84-.26,1.19-.17.36-.41.66-.72.91-.3.25-.67.45-1.1.58-.43.14-.9.2-1.4.2Z"></path><path class="cls-1" d="m220.86,114.54c-.74,0-1.42-.14-2.05-.41-.62-.27-1.16-.65-1.62-1.12-.46-.47-.82-1.03-1.07-1.67s-.39-1.33-.39-2.06v-.03c0-.72.13-1.4.39-2.05.26-.64.62-1.21,1.07-1.69.46-.48,1-.86,1.64-1.14.63-.28,1.33-.42,2.07-.42.47,0,.89.04,1.26.12.37.08.72.19,1.04.33.32.14.62.31.89.51.27.2.54.42.79.66l-.79.85c-.44-.41-.91-.75-1.41-1.01-.5-.26-1.1-.39-1.8-.39-.57,0-1.09.11-1.57.32-.48.21-.9.51-1.26.89-.35.38-.63.83-.83,1.34s-.3,1.06-.3,1.64v.03c0,.59.1,1.15.3,1.66.2.51.48.96.83,1.34.36.38.77.68,1.26.9.48.22,1.01.33,1.57.33.7,0,1.3-.13,1.81-.39.51-.26,1-.62,1.49-1.09l.76.75c-.26.27-.54.52-.83.74-.29.22-.6.41-.93.56-.33.16-.69.28-1.07.37-.38.09-.8.13-1.27.13Z"></path><path class="cls-1" d="m226.97,104.13h1.15v4.54h5.9v-4.54h1.15v10.23h-1.15v-4.6h-5.9v4.6h-1.15v-10.23Z"></path><path class="cls-1" d="m242.17,114.52c-.63,0-1.21-.09-1.73-.28-.52-.19-.97-.47-1.34-.85-.37-.37-.66-.84-.87-1.4-.2-.56-.31-1.19-.31-1.91v-5.95h1.15v5.87c0,1.11.27,1.96.83,2.56.55.6,1.32.89,2.3.89s1.69-.28,2.25-.85c.56-.56.83-1.41.83-2.53v-5.95h1.15v5.86c0,.75-.1,1.41-.31,1.97-.2.56-.49,1.04-.87,1.42-.37.38-.82.67-1.34.86-.52.19-1.1.28-1.75.28Z"></path><path class="cls-1" d="m251.87,105.2h-3.43v-1.07h8.02v1.07h-3.43v9.16h-1.15v-9.16Z"></path><path class="cls-1" d="m258.16,113.59l6.62-8.42h-6.4v-1.04h7.98v.77l-6.63,8.42h6.63v1.04h-8.2v-.77Z"></path><path class="cls-1" d="m277.89,114.54c-.81,0-1.53-.14-2.17-.41-.64-.27-1.18-.65-1.64-1.13-.45-.48-.8-1.03-1.04-1.67-.24-.64-.36-1.32-.36-2.05v-.03c0-.7.12-1.37.37-2.01.25-.64.6-1.2,1.04-1.69.45-.49.99-.87,1.62-1.16.63-.29,1.33-.43,2.1-.43.43,0,.82.03,1.18.09.36.06.69.15.99.26.31.12.59.26.86.43.27.17.53.36.78.58l-.75.88c-.2-.18-.4-.33-.61-.47-.22-.14-.45-.26-.69-.37-.25-.1-.52-.18-.82-.24-.3-.06-.63-.09-.99-.09-.56,0-1.09.11-1.56.34-.48.22-.89.53-1.23.91-.34.38-.61.82-.8,1.34-.2.51-.29,1.05-.29,1.61v.03c0,.61.1,1.18.29,1.69.19.52.46.96.81,1.34s.77.68,1.27.89c.5.22,1.06.32,1.68.32.58,0,1.13-.1,1.65-.3.52-.2.95-.44,1.3-.72v-2.54h-3.11v-1.04h4.22v4.08c-.48.43-1.07.8-1.76,1.1-.7.31-1.48.46-2.35.46Z"></path><path class="cls-1" d="m284.6,104.13h4.4c.63,0,1.2.09,1.69.27.49.18.9.43,1.22.75.25.25.45.55.58.89.14.34.2.72.2,1.12v.03c0,.43-.07.81-.2,1.15-.14.34-.33.63-.58.88-.25.25-.54.45-.88.61-.34.16-.71.27-1.11.34l3.14,4.18h-1.42l-2.97-3.97h-2.92v3.97h-1.15v-10.23Zm4.3,5.22c.38,0,.73-.05,1.05-.15.32-.1.6-.24.84-.42.23-.18.42-.4.55-.66.13-.26.2-.55.2-.88v-.03c0-.63-.23-1.13-.69-1.48-.46-.36-1.1-.53-1.93-.53h-3.16v4.15h3.15Z"></path><path class="cls-1" d="m299.25,114.52c-.63,0-1.21-.09-1.73-.28-.52-.19-.97-.47-1.34-.85-.37-.37-.66-.84-.87-1.4-.2-.56-.31-1.19-.31-1.91v-5.95h1.15v5.87c0,1.11.27,1.96.83,2.56.55.6,1.32.89,2.3.89s1.69-.28,2.25-.85c.56-.56.83-1.41.83-2.53v-5.95h1.15v5.86c0,.75-.1,1.41-.31,1.97-.2.56-.49,1.04-.87,1.42-.37.38-.82.67-1.34.86-.52.19-1.1.28-1.75.28Z"></path><path class="cls-1" d="m306.25,104.13h1.08l6.44,8.2v-8.2h1.13v10.23h-.92l-6.61-8.39v8.39h-1.12v-10.23Z"></path><path class="cls-1" d="m317.79,104.13h3.55c.8,0,1.53.13,2.2.39.67.26,1.24.62,1.72,1.07.48.46.85,1,1.12,1.62.26.62.39,1.29.39,2.01v.03c0,.72-.13,1.39-.39,2.02s-.64,1.17-1.12,1.62c-.48.46-1.06.82-1.72,1.08-.67.26-1.4.39-2.2.39h-3.55v-10.23Zm3.55,9.16c.64,0,1.23-.1,1.75-.31.53-.2.97-.49,1.34-.85.37-.36.65-.79.85-1.28.2-.49.3-1.02.3-1.58v-.03c0-.56-.1-1.09-.3-1.59-.2-.49-.48-.92-.85-1.29s-.81-.65-1.34-.86c-.53-.21-1.11-.31-1.75-.31h-2.4v8.1h2.4Z"></path><path class="cls-1" d="m328.34,104.13h1.29l3.64,8.81,3.65-8.81h1.24l-4.4,10.3h-1.02l-4.4-10.3Z"></path><path class="cls-1" d="m340.18,104.13h7.39v1.04h-6.24v3.52h5.58v1.04h-5.58v3.59h6.31v1.04h-7.47v-10.23Z"></path><path class="cls-1" d="m349.97,104.13h4.4c.63,0,1.2.09,1.69.27.49.18.9.43,1.22.75.25.25.45.55.58.89.14.34.2.72.2,1.12v.03c0,.43-.07.81-.2,1.15-.14.34-.33.63-.58.88-.25.25-.54.45-.88.61s-.71.27-1.11.34l3.14,4.18h-1.42l-2.97-3.97h-2.92v3.97h-1.15v-10.23Zm4.3,5.22c.38,0,.73-.05,1.05-.15.32-.1.6-.24.84-.42.23-.18.42-.4.55-.66.13-.26.2-.55.2-.88v-.03c0-.63-.23-1.13-.69-1.48-.46-.36-1.1-.53-1.93-.53h-3.16v4.15h3.15Z"></path><path class="cls-1" d="m365.28,114.54c-.78,0-1.49-.14-2.13-.42-.64-.28-1.19-.66-1.64-1.15-.46-.48-.81-1.04-1.06-1.68-.25-.64-.37-1.31-.37-2.01v-.03c0-.7.13-1.37.38-2.02.25-.64.61-1.21,1.07-1.69.46-.48,1.01-.87,1.65-1.15.64-.29,1.35-.43,2.13-.43s1.49.14,2.13.42c.64.28,1.19.66,1.64,1.15.46.48.81,1.04,1.06,1.68.25.64.37,1.31.37,2.01,0,0,0,.02,0,.03,0,.7-.13,1.37-.38,2.02-.25.64-.61,1.21-1.07,1.69-.46.48-1.01.87-1.65,1.15-.64.29-1.35.43-2.13.43Zm.03-1.07c.58,0,1.12-.11,1.62-.33.49-.22.91-.52,1.26-.9s.63-.82.83-1.33c.2-.51.3-1.05.3-1.64v-.03c0-.58-.1-1.13-.3-1.64-.2-.51-.48-.96-.84-1.34-.36-.38-.79-.68-1.28-.91-.49-.22-1.03-.34-1.62-.34s-1.12.11-1.61.33c-.49.22-.91.52-1.26.9-.35.38-.63.82-.83,1.33-.2.51-.3,1.05-.3,1.64v.03c0,.58.1,1.13.3,1.64.2.51.48.96.84,1.34.36.38.79.68,1.28.91.49.22,1.03.34,1.61.34Z"></path><path class="cls-1" d="m372.95,104.13h4.4c.63,0,1.2.09,1.69.27.49.18.9.43,1.22.75.25.25.45.55.58.89.14.34.2.72.2,1.12v.03c0,.43-.07.81-.2,1.15-.14.34-.33.63-.58.88-.25.25-.54.45-.88.61s-.71.27-1.11.34l3.14,4.18h-1.42l-2.97-3.97h-2.92v3.97h-1.15v-10.23Zm4.3,5.22c.38,0,.73-.05,1.05-.15.32-.1.6-.24.84-.42.23-.18.42-.4.55-.66.13-.26.2-.55.2-.88v-.03c0-.63-.23-1.13-.69-1.48-.46-.36-1.1-.53-1.93-.53h-3.16v4.15h3.15Z"></path><path class="cls-1" d="m383.52,104.13h3.55c.8,0,1.53.13,2.2.39s1.24.62,1.72,1.07c.48.46.85,1,1.12,1.62.26.62.39,1.29.39,2.01v.03c0,.72-.13,1.39-.39,2.02-.26.62-.64,1.17-1.12,1.62-.48.46-1.06.82-1.72,1.08s-1.4.39-2.2.39h-3.55v-10.23Zm3.55,9.16c.64,0,1.23-.1,1.75-.31.53-.2.97-.49,1.34-.85.37-.36.65-.79.85-1.28.2-.49.3-1.02.3-1.58v-.03c0-.56-.1-1.09-.3-1.59-.2-.49-.48-.92-.85-1.29s-.81-.65-1.34-.86c-.53-.21-1.11-.31-1.75-.31h-2.4v8.1h2.4Z"></path><path class="cls-1" d="m394.95,104.13h1.08l6.44,8.2v-8.2h1.12v10.23h-.92l-6.61-8.39v8.39h-1.13v-10.23Z"></path><path class="cls-1" d="m410.58,114.52c-.63,0-1.21-.09-1.73-.28-.52-.19-.97-.47-1.34-.85-.37-.37-.66-.84-.87-1.4-.2-.56-.31-1.19-.31-1.91v-5.95h1.15v5.87c0,1.11.27,1.96.83,2.56.55.6,1.32.89,2.3.89s1.69-.28,2.25-.85c.56-.56.83-1.41.83-2.53v-5.95h1.15v5.86c0,.75-.1,1.41-.31,1.97-.2.56-.49,1.04-.87,1.42-.37.38-.82.67-1.34.86-.52.19-1.1.28-1.75.28Z"></path><path class="cls-1" d="m417.58,104.13h1.08l6.44,8.2v-8.2h1.13v10.23h-.92l-6.61-8.39v8.39h-1.12v-10.23Z"></path><path class="cls-1" d="m433.87,114.54c-.81,0-1.53-.14-2.17-.41-.64-.27-1.18-.65-1.64-1.13-.45-.48-.8-1.03-1.04-1.67-.24-.64-.36-1.32-.36-2.05v-.03c0-.7.12-1.37.37-2.01.25-.64.6-1.2,1.04-1.69.45-.49.99-.87,1.62-1.16.63-.29,1.33-.43,2.1-.43.43,0,.82.03,1.18.09.36.06.69.15.99.26.31.12.59.26.86.43.27.17.53.36.78.58l-.75.88c-.2-.18-.4-.33-.61-.47-.22-.14-.45-.26-.69-.37-.25-.1-.52-.18-.82-.24-.3-.06-.63-.09-.99-.09-.56,0-1.09.11-1.56.34-.48.22-.89.53-1.23.91-.34.38-.61.82-.8,1.34-.2.51-.29,1.05-.29,1.61v.03c0,.61.1,1.18.29,1.69.19.52.46.96.81,1.34s.77.68,1.27.89c.5.22,1.06.32,1.68.32.58,0,1.13-.1,1.65-.3.52-.2.95-.44,1.3-.72v-2.54h-3.11v-1.04h4.22v4.08c-.48.43-1.07.8-1.76,1.1-.7.31-1.48.46-2.35.46Z"></path></g><g><path class="cls-1" d="m152.61,38.6h22.03c5.11,0,9.67.69,13.66,2.08,4,1.39,7.37,3.33,10.12,5.83,2.75,2.5,4.84,5.48,6.28,8.93,1.44,3.46,2.16,7.25,2.16,11.38v.16c0,4.13-.73,7.95-2.2,11.46-1.47,3.51-3.59,6.54-6.36,9.1-2.77,2.56-6.19,4.56-10.24,6-4.05,1.44-8.64,2.16-13.75,2.16h-21.7v-57.11Zm22.3,43.08c4.75,0,8.57-1.25,11.46-3.75,2.89-2.5,4.34-6.06,4.34-10.69v-.16c0-4.57-1.45-8.12-4.34-10.65-2.89-2.53-6.71-3.79-11.46-3.79h-6.47v29.04h6.47Z"></path><path class="cls-1" d="m235.42,96.69c-5.11,0-9.97-.79-14.56-2.38-4.6-1.59-8.66-3.97-12.2-7.14l8.81-10.55c5.71,4.57,11.88,6.85,18.52,6.85,2.12,0,3.74-.34,4.85-1.02,1.11-.68,1.67-1.64,1.67-2.89v-.16c0-.6-.14-1.13-.41-1.59-.27-.46-.77-.91-1.51-1.34-.73-.43-1.71-.85-2.94-1.26-1.22-.41-2.81-.83-4.77-1.26-3.05-.7-5.87-1.48-8.48-2.32-2.61-.84-4.88-1.93-6.81-3.26-1.93-1.33-3.45-2.99-4.57-4.97-1.12-1.98-1.67-4.44-1.67-7.37v-.16c0-2.66.5-5.1,1.51-7.33,1.01-2.23,2.47-4.15,4.41-5.78,1.93-1.63,4.26-2.89,6.98-3.79,2.72-.89,5.79-1.34,9.22-1.34,4.9,0,9.26.64,13.09,1.93,3.83,1.29,7.3,3.19,10.4,5.7l-7.91,11.21c-2.61-1.85-5.29-3.25-8.04-4.2-2.75-.95-5.4-1.43-7.95-1.43-1.9,0-3.33.35-4.28,1.06-.95.71-1.43,1.57-1.43,2.61v.16c0,.65.15,1.22.45,1.71.3.49.82.94,1.55,1.34s1.74.81,3.02,1.22c1.28.41,2.9.83,4.85,1.26,3.26.71,6.21,1.53,8.85,2.48,2.64.95,4.88,2.1,6.73,3.46,1.85,1.36,3.26,3,4.24,4.93.98,1.93,1.47,4.22,1.47,6.88v.16c0,2.93-.56,5.54-1.67,7.82-1.12,2.28-2.68,4.22-4.69,5.82-2.01,1.6-4.43,2.82-7.26,3.67-2.83.84-5.98,1.26-9.46,1.26Z"></path><path class="cls-1" d="m293.26,96.85c-4.46,0-8.58-.72-12.36-2.16s-7.06-3.47-9.83-6.08c-2.77-2.61-4.95-5.72-6.53-9.34-1.58-3.62-2.37-7.6-2.37-11.95v-.16c0-4.13.77-8.01,2.31-11.63,1.54-3.62,3.67-6.77,6.37-9.46,2.7-2.69,5.95-4.8,9.72-6.32,3.77-1.52,7.86-2.28,12.27-2.28,5.06,0,9.42.73,13.09,2.2,3.67,1.47,7.03,3.51,10.08,6.12l-9.3,11.18c-2.07-1.74-4.17-3.07-6.32-4-2.15-.92-4.64-1.39-7.46-1.39-2.07,0-3.98.41-5.75,1.22-1.77.82-3.3,1.93-4.61,3.34-1.3,1.42-2.34,3.07-3.1,4.98-.76,1.9-1.14,3.94-1.14,6.12v.16c0,2.28.38,4.4,1.15,6.36.76,1.96,1.84,3.63,3.23,5.02,1.39,1.39,3.03,2.48,4.91,3.26,1.88.79,3.97,1.18,6.26,1.18,3.71,0,6.77-.79,9.17-2.37v-6.94h-11.26v-11.58h26.27v25.7c-3.05,2.5-6.64,4.6-10.77,6.28-4.13,1.68-8.81,2.53-14.03,2.53Z"></path><path class="cls-1" d="m318.22,38.6h17.7l12.97,36.14,12.97-36.14h17.38l-23.17,57.52h-14.68l-23.17-57.52Z"></path><path class="cls-1" d="m408.61,96.85c-4.4,0-8.48-.78-12.24-2.32-3.75-1.55-6.99-3.66-9.71-6.32-2.72-2.66-4.85-5.79-6.4-9.38-1.55-3.59-2.32-7.42-2.32-11.5v-.16c0-4.08.78-7.93,2.32-11.54,1.55-3.62,3.71-6.77,6.49-9.46,2.77-2.69,6.04-4.81,9.79-6.36,3.75-1.55,7.83-2.33,12.24-2.33s8.48.78,12.24,2.33c3.75,1.55,6.99,3.66,9.71,6.32,2.72,2.67,4.85,5.79,6.4,9.38,1.55,3.59,2.32,7.42,2.32,11.5v.16c0,4.08-.78,7.93-2.32,11.54-1.55,3.62-3.71,6.77-6.49,9.46-2.77,2.69-6.04,4.81-9.79,6.36-3.75,1.55-7.83,2.32-12.24,2.32Zm.12-14.28c2.18,0,4.17-.41,5.97-1.22,1.8-.82,3.33-1.92,4.58-3.3s2.24-3,2.94-4.85c.71-1.85,1.06-3.81,1.06-5.87v-.16c0-2.07-.36-4.02-1.06-5.87-.71-1.85-1.72-3.48-3.03-4.9-1.31-1.41-2.86-2.54-4.66-3.38-1.8-.84-3.79-1.26-5.97-1.26s-4.16.41-5.93,1.22c-1.77.82-3.3,1.92-4.58,3.3-1.28,1.39-2.26,3.01-2.95,4.85-.68,1.85-1.02,3.81-1.02,5.87v.16c0,2.07.35,4.02,1.06,5.87.71,1.85,1.7,3.48,2.99,4.9,1.28,1.42,2.82,2.54,4.62,3.39,1.8.84,3.79,1.26,5.97,1.26Z"></path></g><g><polygon class="cls-1" points="66.01 12.69 60.68 16.4 62.56 10.18 57.39 6.26 63.88 6.13 66.01 0 68.14 6.13 74.63 6.26 69.46 10.18 71.34 16.4 66.01 12.69"></polygon><polygon class="cls-1" points="41.2 17.34 43.14 23.53 37.78 19.88 32.49 23.64 34.31 17.41 29.1 13.54 35.58 13.34 37.65 7.19 39.84 13.3 46.33 13.36 41.2 17.34"></polygon><polygon class="cls-1" points="19.91 38.64 21.84 44.83 16.48 41.17 11.19 44.93 13.01 38.7 7.8 34.83 14.29 34.64 16.36 28.49 18.55 34.6 25.04 34.67 19.91 38.64"></polygon><polygon class="cls-1" points="12.11 67.71 14.07 73.9 8.7 70.26 3.42 74.03 5.22 67.8 0 63.94 6.49 63.73 8.54 57.57 10.75 63.68 17.24 63.73 12.11 67.71"></polygon><polygon class="cls-1" points="18.26 91.83 24.75 91.96 19.58 95.89 21.46 102.1 16.13 98.39 10.81 102.11 12.68 95.89 7.51 91.98 14 91.84 16.12 85.71 18.26 91.83"></polygon><polygon class="cls-1" points="39.59 113.16 46.08 113.36 40.87 117.23 42.69 123.46 37.4 119.7 32.03 123.35 33.97 117.16 28.84 113.19 35.33 113.12 37.52 107.01 39.59 113.16"></polygon><polygon class="cls-1" points="61.74 125.96 56.56 122.05 63.05 121.9 65.16 115.77 67.31 121.89 73.8 122.01 68.64 125.94 70.53 132.15 65.19 128.46 59.88 132.17 61.74 125.96"></polygon><polygon class="cls-1" points="92.5 113.11 94.69 107 96.76 113.15 103.25 113.35 98.03 117.22 99.85 123.45 94.56 119.69 89.19 123.34 91.14 117.14 86.01 113.17 92.5 113.11"></polygon><polygon class="cls-1" points="113.72 91.86 115.79 85.71 117.98 91.82 124.47 91.89 119.34 95.86 121.28 102.05 115.92 98.4 110.63 102.16 112.44 95.93 107.23 92.06 113.72 91.86"></polygon><polygon class="cls-1" points="119.9 67.7 114.79 63.69 121.28 63.67 123.51 57.57 125.54 63.74 132.03 63.97 126.79 67.81 128.57 74.05 123.3 70.26 117.92 73.88 119.9 67.7"></polygon><polygon class="cls-1" points="112.13 38.68 106.95 34.77 113.44 34.63 115.56 28.49 117.7 34.62 124.19 34.75 119.02 38.67 120.91 44.88 115.58 41.18 110.25 44.9 112.13 38.68"></polygon><polygon class="cls-1" points="95.11 20.48 89.78 24.2 91.65 17.98 86.48 14.07 92.97 13.93 95.09 7.79 97.23 13.92 103.72 14.05 98.55 17.97 100.44 24.18 95.11 20.48"></polygon></g><path class="cls-1" d="m64.99,32.71c-9.91,4.15-23.15,6.08-28.34,6.71v34.29c0,6.38,5.01,14.09,14.49,22.3,5.67,4.91,11.41,8.65,13.85,10.17,2.43-1.51,8.14-5.23,13.8-10.12,9.52-8.23,14.55-15.95,14.55-22.35v-34.29c-5.19-.63-18.43-2.56-28.34-6.71Z"></path><path class="cls-1" d="m64.99,106.18s0,0,0,0c2.43-1.51,8.14-5.23,13.8-10.12,9.52-8.23,14.55-15.95,14.55-22.35v-34.29c-5.19-.63-18.43-2.56-28.34-6.71v73.47Z"></path><g><path class="cls-1" d="m422.41,61.82c.58,1.69.89,3.47.89,5.34v.16c0,2.07-.36,4.03-1.06,5.87-.71,1.85-1.69,3.47-2.94,4.85-1.25,1.39-2.78,2.49-4.58,3.3-1.8.82-3.79,1.22-5.97,1.22s-4.17-.42-5.97-1.26c-1.8-.84-3.34-1.97-4.62-3.39-1.28-1.41-2.28-3.05-2.99-4.9-.57-1.48-.9-3.03-1.01-4.65-5.21,1.02-10.54,1.95-15.96,2.81.34,2.66,1.02,5.2,2.07,7.64,1.55,3.59,3.68,6.72,6.4,9.38,2.72,2.67,5.96,4.77,9.71,6.32,3.75,1.55,7.83,2.32,12.24,2.32s8.48-.78,12.24-2.32c3.75-1.55,7.02-3.67,9.79-6.36,2.77-2.69,4.94-5.85,6.49-9.46,1.55-3.62,2.32-7.46,2.32-11.54v-.16c0-3.42-.55-6.67-1.64-9.74-4.97,1.61-10.11,3.13-15.4,4.57Z"></path><path class="cls-1" d="m333.36,76.18l8.03,19.94h14.68l9.3-23.08c-10.37,1.35-21.06,2.41-32.02,3.14Z"></path><path class="cls-1" d="m303.05,77.38v3.48c-2.4,1.58-5.46,2.37-9.17,2.37-2.29,0-4.38-.39-6.26-1.18-1.88-.79-3.52-1.88-4.91-3.26-.48-.48-.91-1-1.31-1.55-6.03-.16-12-.41-17.89-.75.3.95.64,1.88,1.04,2.79,1.58,3.62,3.75,6.73,6.53,9.34,2.77,2.61,6.05,4.64,9.83,6.08s7.9,2.16,12.36,2.16c5.22,0,9.9-.84,14.03-2.53,4.13-1.69,7.72-3.78,10.77-6.28v-11.05c-4.96.19-9.96.33-15.01.39Z"></path><path class="cls-1" d="m231.73,73.67c.39.09.76.19,1.16.28,1.96.43,3.55.86,4.77,1.26,1.22.41,2.2.83,2.94,1.26.73.44,1.24.88,1.51,1.34.27.46.41.99.41,1.59v.16c0,1.25-.56,2.21-1.67,2.89-1.12.68-2.73,1.02-4.85,1.02-6.64,0-12.81-2.28-18.52-6.85l-8.81,10.55c3.53,3.17,7.6,5.56,12.2,7.14,4.6,1.59,9.45,2.38,14.56,2.38,3.48,0,6.63-.42,9.46-1.26,2.83-.84,5.25-2.06,7.26-3.67,2.01-1.6,3.58-3.54,4.69-5.82,1.11-2.28,1.67-4.89,1.67-7.82v-.16c0-.62-.03-1.22-.09-1.8-9.09-.62-17.99-1.45-26.69-2.49Z"></path><path class="cls-1" d="m190.7,66.91c0,.06,0,.11,0,.16v.16c0,4.62-1.45,8.19-4.34,10.69-2.89,2.5-6.71,3.75-11.46,3.75h-6.47v-20.18c-5.45-1.5-10.72-3.1-15.83-4.78v39h21.7c5.11,0,9.69-.72,13.75-2.16,4.05-1.44,7.46-3.44,10.24-6,2.77-2.56,4.89-5.59,6.36-9.1,1.1-2.64,1.79-5.45,2.07-8.45-5.45-.95-10.79-1.99-16.02-3.1Z"></path></g><rect class="cls-1" x="59.74" y="65.53" width="10.7" height="14.9"></rect><path class="cls-2" d="m78.22,57.25c0,1.4,0,2.79,0,4.19,0,.35.1.55.45.65.45.13.88.31,1.32.47.89.32,1.32.92,1.35,1.87,0,.09,0,.17,0,.26,0,5.51,0,11.02,0,16.52,0,1.25-.39,1.78-1.55,2.22-2.93,1.12-5.94,1.9-9.04,2.34-2.89.4-5.8.51-8.72.29-4.11-.3-8.09-1.19-11.94-2.67-1.02-.39-1.44-.96-1.44-2.07,0-3.36,0-6.72,0-10.08,0-2.2,0-4.4,0-6.59,0-1.19.38-1.74,1.49-2.14.37-.13.74-.29,1.11-.39.39-.11.52-.31.52-.72-.02-2.31-.02-4.62,0-6.93,0-1.26.13-2.51.47-3.73.95-3.37,2.9-6,5.88-7.82,2.94-1.8,6.13-2.35,9.5-1.67,3.23.66,5.86,2.33,7.88,4.95,1.85,2.42,2.71,5.18,2.72,8.21,0,.95,0,1.9,0,2.85Zm-4.56,3.45v-.43c0-1.96,0-3.93,0-5.89,0-2.98-1.19-5.37-3.55-7.18-2.59-1.99-6.57-2.24-9.36-.56-2.9,1.74-4.39,4.32-4.42,7.71-.02,1.98,0,3.95,0,5.93,0,.13.01.26.02.42,5.78-1.22,11.51-1.22,17.31,0Zm-6.89,15.09h0c0-.93.01-1.85,0-2.78,0-.29.08-.47.32-.63,1.15-.79,1.72-2.26,1.41-3.57-.51-2.19-2.73-3.35-4.71-2.63-1.29.47-2.09,1.4-2.34,2.73-.27,1.43.25,2.6,1.41,3.46.25.19.34.37.33.67-.01,1.79,0,2.76,0,4.55,0,.51.12.97.48,1.36.49.54,1.26.72,1.97.46.65-.24,1.12-.87,1.13-1.59.02-.95,0-1.08,0-2.03Z"></path></svg>