<?xml version="1.0" encoding="UTF-8" standalone="no"?><svg xmlns="http://www.w3.org/2000/svg" id="Ebene_1" data-name="Ebene 1" viewBox="0 0 810 540"><defs><style>      .cls-1 {        fill: #696969;      }      .cls-2 {        fill: #fff;      }    </style></defs><rect class="cls-1" width="810" height="540"></rect><g><g id="s"><g id="c"><path id="t" class="cls-2" d="m405,60l-9.27,28.53,14.27,4.64-5-33.17Z"></path><path id="t-2" data-name="t" class="cls-2" d="m405,60l9.27,28.53-14.27,4.64,5-33.17Z"></path></g><g id="a"><g id="c-2" data-name="c"><path id="t-3" data-name="t" class="cls-2" d="m433.53,80.73h-30v15l30-15Z"></path><path id="t-4" data-name="t" class="cls-2" d="m433.53,80.73l-24.27,17.63-8.82-12.14,33.09-5.5Z"></path></g><g id="c-3" data-name="c"><path id="t-5" data-name="t" class="cls-2" d="m422.63,114.27l-9.27-28.53-14.27,4.64,23.54,23.9Z"></path><path id="t-6" data-name="t" class="cls-2" d="m422.63,114.27l-24.27-17.63,8.82-12.14,15.45,29.77Z"></path></g></g><g id="a-2" data-name="a"><g id="c-4" data-name="c"><path id="t-7" data-name="t" class="cls-2" d="m376.47,80.73h30v15l-30-15Z"></path><path id="t-8" data-name="t" class="cls-2" d="m376.47,80.73l24.27,17.63,8.82-12.14-33.09-5.5Z"></path></g><g id="c-5" data-name="c"><path id="t-9" data-name="t" class="cls-2" d="m387.37,114.27l9.27-28.53,14.27,4.64-23.54,23.9Z"></path><path id="t-10" data-name="t" class="cls-2" d="m387.37,114.27l24.27-17.63-8.82-12.14-15.45,29.77Z"></path></g></g></g><g id="s-2" data-name="s"><g id="c-6" data-name="c"><path id="t-11" data-name="t" class="cls-2" d="m405,420l-9.27,28.53,14.27,4.64-5-33.17Z"></path><path id="t-12" data-name="t" class="cls-2" d="m405,420l9.27,28.53-14.27,4.64,5-33.17Z"></path></g><g id="a-3" data-name="a"><g id="c-7" data-name="c"><path id="t-13" data-name="t" class="cls-2" d="m433.53,440.73h-30v15l30-15Z"></path><path id="t-14" data-name="t" class="cls-2" d="m433.53,440.73l-24.27,17.63-8.82-12.14,33.09-5.5Z"></path></g><g id="c-8" data-name="c"><path id="t-15" data-name="t" class="cls-2" d="m422.63,474.27l-9.27-28.53-14.27,4.64,23.54,23.9Z"></path><path id="t-16" data-name="t" class="cls-2" d="m422.63,474.27l-24.27-17.63,8.82-12.14,15.45,29.77Z"></path></g></g><g id="a-4" data-name="a"><g id="c-9" data-name="c"><path id="t-17" data-name="t" class="cls-2" d="m376.47,440.73h30v15l-30-15Z"></path><path id="t-18" data-name="t" class="cls-2" d="m376.47,440.73l24.27,17.63,8.82-12.14-33.09-5.5Z"></path></g><g id="c-10" data-name="c"><path id="t-19" data-name="t" class="cls-2" d="m387.37,474.27l9.27-28.53,14.27,4.64-23.54,23.9Z"></path><path id="t-20" data-name="t" class="cls-2" d="m387.37,474.27l24.27-17.63-8.82-12.14-15.45,29.77Z"></path></g></g></g><g id="l"><g id="s-3" data-name="s"><g id="c-11" data-name="c"><path id="t-21" data-name="t" class="cls-2" d="m225,240l-9.27,28.53,14.27,4.64-5-33.17Z"></path><path id="t-22" data-name="t" class="cls-2" d="m225,240l9.27,28.53-14.27,4.64,5-33.17Z"></path></g><g id="a-5" data-name="a"><g id="c-12" data-name="c"><path id="t-23" data-name="t" class="cls-2" d="m253.53,260.73h-30v15l30-15Z"></path><path id="t-24" data-name="t" class="cls-2" d="m253.53,260.73l-24.27,17.63-8.82-12.14,33.09-5.5Z"></path></g><g id="c-13" data-name="c"><path id="t-25" data-name="t" class="cls-2" d="m242.63,294.27l-9.27-28.53-14.27,4.64,23.54,23.9Z"></path><path id="t-26" data-name="t" class="cls-2" d="m242.63,294.27l-24.27-17.63,8.82-12.14,15.45,29.77Z"></path></g></g><g id="a-6" data-name="a"><g id="c-14" data-name="c"><path id="t-27" data-name="t" class="cls-2" d="m196.47,260.73h30v15l-30-15Z"></path><path id="t-28" data-name="t" class="cls-2" d="m196.47,260.73l24.27,17.63,8.82-12.14-33.09-5.5Z"></path></g><g id="c-15" data-name="c"><path id="t-29" data-name="t" class="cls-2" d="m207.37,294.27l9.27-28.53,14.27,4.64-23.54,23.9Z"></path><path id="t-30" data-name="t" class="cls-2" d="m207.37,294.27l24.27-17.63-8.82-12.14-15.45,29.77Z"></path></g></g></g><g id="s-4" data-name="s"><g id="c-16" data-name="c"><path id="t-31" data-name="t" class="cls-2" d="m297.37,138.39l24.27-17.63-8.82-12.14-15.45,29.77Z"></path><path id="t-32" data-name="t" class="cls-2" d="m297.37,138.39l9.27-28.53,14.27,4.64-23.54,23.9Z"></path></g><g id="a-7" data-name="a"><g id="c-17" data-name="c"><path id="t-33" data-name="t" class="cls-2" d="m286.47,104.84l24.27,17.63,8.82-12.14-33.09-5.5Z"></path><path id="t-34" data-name="t" class="cls-2" d="m286.47,104.84h30v15s-30-15-30-15Z"></path></g><g id="c-18" data-name="c"><path id="t-35" data-name="t" class="cls-2" d="m315,84.12l-9.27,28.53,14.27,4.64-5-33.17Z"></path><path id="t-36" data-name="t" class="cls-2" d="m315,84.12l9.27,28.53-14.27,4.64,5-33.17Z"></path></g></g><g id="a-8" data-name="a"><g id="c-19" data-name="c"><path id="t-37" data-name="t" class="cls-2" d="m332.63,138.39l-24.27-17.63,8.82-12.14,15.45,29.77Z"></path><path id="t-38" data-name="t" class="cls-2" d="m332.63,138.39l-9.27-28.53-14.27,4.64,23.54,23.9Z"></path></g><g id="c-20" data-name="c"><path id="t-39" data-name="t" class="cls-2" d="m343.53,104.84l-24.27,17.63-8.82-12.14,33.09-5.5Z"></path><path id="t-40" data-name="t" class="cls-2" d="m343.53,104.84h-30s0,15,0,15l30-15Z"></path></g></g></g><g id="s-5" data-name="s"><g id="c-21" data-name="c"><path id="t-41" data-name="t" class="cls-2" d="m266.75,204.27l-9.27-28.53-14.27,4.64,23.54,23.9Z"></path><path id="t-42" data-name="t" class="cls-2" d="m266.75,204.27l-24.27-17.63,8.82-12.14,15.45,29.77Z"></path></g><g id="a-9" data-name="a"><g id="c-22" data-name="c"><path id="t-43" data-name="t" class="cls-2" d="m231.48,204.27l24.27-17.63-8.82-12.14-15.45,29.77Z"></path><path id="t-44" data-name="t" class="cls-2" d="m231.48,204.27l9.27-28.53,14.27,4.64-23.54,23.9Z"></path></g><g id="c-23" data-name="c"><path id="t-45" data-name="t" class="cls-2" d="m220.58,170.73l24.27,17.63,8.82-12.14-33.09-5.5Z"></path><path id="t-46" data-name="t" class="cls-2" d="m220.58,170.73h30s0,15,0,15l-30-15Z"></path></g></g><g id="a-10" data-name="a"><g id="c-24" data-name="c"><path id="t-47" data-name="t" class="cls-2" d="m277.65,170.73l-24.27,17.63-8.82-12.14,33.09-5.5Z"></path><path id="t-48" data-name="t" class="cls-2" d="m277.65,170.73h-30v15s30-15,30-15Z"></path></g><g id="c-25" data-name="c"><path id="t-49" data-name="t" class="cls-2" d="m249.12,150l9.27,28.53-14.27,4.64,5-33.17Z"></path><path id="t-50" data-name="t" class="cls-2" d="m249.12,150l-9.27,28.53,14.27,4.64-5-33.17Z"></path></g></g></g><g id="s-6" data-name="s"><g id="c-26" data-name="c"><path id="t-51" data-name="t" class="cls-2" d="m277.65,350.73h-30v15l30-15Z"></path><path id="t-52" data-name="t" class="cls-2" d="m277.65,350.73l-24.27,17.63-8.82-12.14,33.09-5.5Z"></path></g><g id="a-11" data-name="a"><g id="c-27" data-name="c"><path id="t-53" data-name="t" class="cls-2" d="m266.75,384.27l-9.27-28.53-14.27,4.64,23.54,23.9Z"></path><path id="t-54" data-name="t" class="cls-2" d="m266.75,384.27l-24.27-17.63,8.82-12.14,15.45,29.77Z"></path></g><g id="c-28" data-name="c"><path id="t-55" data-name="t" class="cls-2" d="m231.48,384.27l24.27-17.63-8.82-12.14-15.45,29.77Z"></path><path id="t-56" data-name="t" class="cls-2" d="m231.48,384.27l9.27-28.53,14.27,4.64-23.54,23.9Z"></path></g></g><g id="a-12" data-name="a"><g id="c-29" data-name="c"><path id="t-57" data-name="t" class="cls-2" d="m249.12,330l9.27,28.53-14.27,4.64,5-33.17Z"></path><path id="t-58" data-name="t" class="cls-2" d="m249.12,330l-9.27,28.53,14.27,4.64-5-33.17Z"></path></g><g id="c-30" data-name="c"><path id="t-59" data-name="t" class="cls-2" d="m220.58,350.73h30s0,15,0,15l-30-15Z"></path><path id="t-60" data-name="t" class="cls-2" d="m220.58,350.73l24.27,17.63,8.82-12.14-33.09-5.5Z"></path></g></g></g><g id="s-7" data-name="s"><g id="c-31" data-name="c"><path id="t-61" data-name="t" class="cls-2" d="m343.53,416.61h-30s0,15,0,15l30-15Z"></path><path id="t-62" data-name="t" class="cls-2" d="m343.53,416.61l-24.27,17.63-8.82-12.14,33.09-5.5Z"></path></g><g id="a-13" data-name="a"><g id="c-32" data-name="c"><path id="t-63" data-name="t" class="cls-2" d="m332.63,450.16l-9.27-28.53-14.27,4.64,23.54,23.9Z"></path><path id="t-64" data-name="t" class="cls-2" d="m332.63,450.16l-24.27-17.63,8.82-12.14,15.45,29.77Z"></path></g><g id="c-33" data-name="c"><path id="t-65" data-name="t" class="cls-2" d="m297.37,450.16l24.27-17.63-8.82-12.14-15.45,29.77Z"></path><path id="t-66" data-name="t" class="cls-2" d="m297.37,450.16l9.27-28.53,14.27,4.64-23.54,23.9Z"></path></g></g><g id="a-14" data-name="a"><g id="c-34" data-name="c"><path id="t-67" data-name="t" class="cls-2" d="m315,395.88l9.27,28.53-14.27,4.64,5-33.17Z"></path><path id="t-68" data-name="t" class="cls-2" d="m315,395.88l-9.27,28.53,14.27,4.64-5-33.17Z"></path></g><g id="c-35" data-name="c"><path id="t-69" data-name="t" class="cls-2" d="m286.47,416.61h30s0,15,0,15l-30-15Z"></path><path id="t-70" data-name="t" class="cls-2" d="m286.47,416.61l24.27,17.63,8.82-12.14-33.09-5.5Z"></path></g></g></g></g><g id="l-2" data-name="l"><g id="s-8" data-name="s"><g id="c-36" data-name="c"><path id="t-71" data-name="t" class="cls-2" d="m585,240l9.27,28.53-14.27,4.64,5-33.17Z"></path><path id="t-72" data-name="t" class="cls-2" d="m585,240l-9.27,28.53,14.27,4.64-5-33.17Z"></path></g><g id="a-15" data-name="a"><g id="c-37" data-name="c"><path id="t-73" data-name="t" class="cls-2" d="m556.47,260.73h30v15l-30-15Z"></path><path id="t-74" data-name="t" class="cls-2" d="m556.47,260.73l24.27,17.63,8.82-12.14-33.09-5.5Z"></path></g><g id="c-38" data-name="c"><path id="t-75" data-name="t" class="cls-2" d="m567.37,294.27l9.27-28.53,14.27,4.64-23.54,23.9Z"></path><path id="t-76" data-name="t" class="cls-2" d="m567.37,294.27l24.27-17.63-8.82-12.14-15.45,29.77Z"></path></g></g><g id="a-16" data-name="a"><g id="c-39" data-name="c"><path id="t-77" data-name="t" class="cls-2" d="m613.53,260.73h-30v15l30-15Z"></path><path id="t-78" data-name="t" class="cls-2" d="m613.53,260.73l-24.27,17.63-8.82-12.14,33.09-5.5Z"></path></g><g id="c-40" data-name="c"><path id="t-79" data-name="t" class="cls-2" d="m602.63,294.27l-9.27-28.53-14.27,4.64,23.54,23.9Z"></path><path id="t-80" data-name="t" class="cls-2" d="m602.63,294.27l-24.27-17.63,8.82-12.14,15.45,29.77Z"></path></g></g></g><g id="s-9" data-name="s"><g id="c-41" data-name="c"><path id="t-81" data-name="t" class="cls-2" d="m512.63,138.39l-24.27-17.63,8.82-12.14,15.45,29.77Z"></path><path id="t-82" data-name="t" class="cls-2" d="m512.63,138.39l-9.27-28.53-14.27,4.64,23.54,23.9Z"></path></g><g id="a-17" data-name="a"><g id="c-42" data-name="c"><path id="t-83" data-name="t" class="cls-2" d="m523.53,104.84l-24.27,17.63-8.82-12.14,33.09-5.5Z"></path><path id="t-84" data-name="t" class="cls-2" d="m523.53,104.84h-30v15s30-15,30-15Z"></path></g><g id="c-43" data-name="c"><path id="t-85" data-name="t" class="cls-2" d="m495,84.12l9.27,28.53-14.27,4.64,5-33.17Z"></path><path id="t-86" data-name="t" class="cls-2" d="m495,84.12l-9.27,28.53,14.27,4.64-5-33.17Z"></path></g></g><g id="a-18" data-name="a"><g id="c-44" data-name="c"><path id="t-87" data-name="t" class="cls-2" d="m477.37,138.39l24.27-17.63-8.82-12.14-15.45,29.77Z"></path><path id="t-88" data-name="t" class="cls-2" d="m477.37,138.39l9.27-28.53,14.27,4.64-23.54,23.9Z"></path></g><g id="c-45" data-name="c"><path id="t-89" data-name="t" class="cls-2" d="m466.47,104.84l24.27,17.63,8.82-12.14-33.09-5.5Z"></path><path id="t-90" data-name="t" class="cls-2" d="m466.47,104.84h30s0,15,0,15l-30-15Z"></path></g></g></g><g id="s-10" data-name="s"><g id="c-46" data-name="c"><path id="t-91" data-name="t" class="cls-2" d="m543.25,204.27l9.27-28.53,14.27,4.64-23.54,23.9Z"></path><path id="t-92" data-name="t" class="cls-2" d="m543.25,204.27l24.27-17.63-8.82-12.14-15.45,29.77Z"></path></g><g id="a-19" data-name="a"><g id="c-47" data-name="c"><path id="t-93" data-name="t" class="cls-2" d="m578.52,204.27l-24.27-17.63,8.82-12.14,15.45,29.77Z"></path><path id="t-94" data-name="t" class="cls-2" d="m578.52,204.27l-9.27-28.53-14.27,4.64,23.54,23.9Z"></path></g><g id="c-48" data-name="c"><path id="t-95" data-name="t" class="cls-2" d="m589.42,170.73l-24.27,17.63-8.82-12.14,33.09-5.5Z"></path><path id="t-96" data-name="t" class="cls-2" d="m589.42,170.73h-30s0,15,0,15l30-15Z"></path></g></g><g id="a-20" data-name="a"><g id="c-49" data-name="c"><path id="t-97" data-name="t" class="cls-2" d="m532.35,170.73l24.27,17.63,8.82-12.14-33.09-5.5Z"></path><path id="t-98" data-name="t" class="cls-2" d="m532.35,170.73h30v15s-30-15-30-15Z"></path></g><g id="c-50" data-name="c"><path id="t-99" data-name="t" class="cls-2" d="m560.88,150l-9.27,28.53,14.27,4.64-5-33.17Z"></path><path id="t-100" data-name="t" class="cls-2" d="m560.88,150l9.27,28.53-14.27,4.64,5-33.17Z"></path></g></g></g><g id="s-11" data-name="s"><g id="c-51" data-name="c"><path id="t-101" data-name="t" class="cls-2" d="m532.35,350.73h30v15l-30-15Z"></path><path id="t-102" data-name="t" class="cls-2" d="m532.35,350.73l24.27,17.63,8.82-12.14-33.09-5.5Z"></path></g><g id="a-21" data-name="a"><g id="c-52" data-name="c"><path id="t-103" data-name="t" class="cls-2" d="m543.25,384.27l9.27-28.53,14.27,4.64-23.54,23.9Z"></path><path id="t-104" data-name="t" class="cls-2" d="m543.25,384.27l24.27-17.63-8.82-12.14-15.45,29.77Z"></path></g><g id="c-53" data-name="c"><path id="t-105" data-name="t" class="cls-2" d="m578.52,384.27l-24.27-17.63,8.82-12.14,15.45,29.77Z"></path><path id="t-106" data-name="t" class="cls-2" d="m578.52,384.27l-9.27-28.53-14.27,4.64,23.54,23.9Z"></path></g></g><g id="a-22" data-name="a"><g id="c-54" data-name="c"><path id="t-107" data-name="t" class="cls-2" d="m560.88,330l-9.27,28.53,14.27,4.64-5-33.17Z"></path><path id="t-108" data-name="t" class="cls-2" d="m560.88,330l9.27,28.53-14.27,4.64,5-33.17Z"></path></g><g id="c-55" data-name="c"><path id="t-109" data-name="t" class="cls-2" d="m589.42,350.73h-30s0,15,0,15l30-15Z"></path><path id="t-110" data-name="t" class="cls-2" d="m589.42,350.73l-24.27,17.63-8.82-12.14,33.09-5.5Z"></path></g></g></g><g id="s-12" data-name="s"><g id="c-56" data-name="c"><path id="t-111" data-name="t" class="cls-2" d="m466.47,416.61h30s0,15,0,15l-30-15Z"></path><path id="t-112" data-name="t" class="cls-2" d="m466.47,416.61l24.27,17.63,8.82-12.14-33.09-5.5Z"></path></g><g id="a-23" data-name="a"><g id="c-57" data-name="c"><path id="t-113" data-name="t" class="cls-2" d="m477.37,450.16l9.27-28.53,14.27,4.64-23.54,23.9Z"></path><path id="t-114" data-name="t" class="cls-2" d="m477.37,450.16l24.27-17.63-8.82-12.14-15.45,29.77Z"></path></g><g id="c-58" data-name="c"><path id="t-115" data-name="t" class="cls-2" d="m512.63,450.16l-24.27-17.63,8.82-12.14,15.45,29.77Z"></path><path id="t-116" data-name="t" class="cls-2" d="m512.63,450.16l-9.27-28.53-14.27,4.64,23.54,23.9Z"></path></g></g><g id="a-24" data-name="a"><g id="c-59" data-name="c"><path id="t-117" data-name="t" class="cls-2" d="m495,395.88l-9.27,28.53,14.27,4.64-5-33.17Z"></path><path id="t-118" data-name="t" class="cls-2" d="m495,395.88l9.27,28.53-14.27,4.64,5-33.17Z"></path></g><g id="c-60" data-name="c"><path id="t-119" data-name="t" class="cls-2" d="m523.53,416.61h-30s0,15,0,15l30-15Z"></path><path id="t-120" data-name="t" class="cls-2" d="m523.53,416.61l-24.27,17.63-8.82-12.14,33.09-5.5Z"></path></g></g></g></g></g></svg>