<?xml version="1.0" encoding="UTF-8"?>
<svg id="Ebene_1" data-name="Ebene 1" xmlns="http://www.w3.org/2000/svg" viewBox="0 0 300.01 82.12">
  <defs>
    <style>
      .cls-1 {
        fill: #696969;
      }

      .cls-2 {
        fill: #feed01;
      }

      .cls-3 {
        fill: #e40001;
      }
    </style>
  </defs>
  <path d="m0,0h22.99v22.99H0V0Z"/>
  <path class="cls-3" d="m0,29.56h22.99v22.99H0v-22.99Z"/>
  <path class="cls-2" d="m0,59.13h22.99v22.99H0v-22.99Z"/>
  <path class="cls-1" d="m29.48,22.71V0h9.47c1.7,0,3.12.24,4.27.72,1.15.48,2.01,1.15,2.59,2.02.58.87.87,1.87.87,3.01,0,.86-.18,1.63-.54,2.31-.36.68-.86,1.24-1.5,1.68-.63.45-1.37.75-2.2.93v.22c.92.04,1.76.29,2.55.74.78.45,1.4,1.08,1.88,1.88s.71,1.75.71,2.84c0,1.22-.31,2.31-.93,3.26-.62.96-1.52,1.71-2.69,2.26-1.18.55-2.6.83-4.28.83h-10.2Zm5.49-13.36h3.04c.6,0,1.13-.1,1.6-.3.47-.2.83-.49,1.09-.87s.39-.83.39-1.36c0-.76-.27-1.36-.81-1.79s-1.27-.65-2.18-.65h-3.13v4.98h0Zm0,8.94h3.39c1.19,0,2.07-.23,2.63-.68s.85-1.08.85-1.89c0-.58-.14-1.09-.41-1.51-.27-.43-.66-.75-1.16-.99-.51-.23-1.11-.35-1.81-.35h-3.49v5.41h0Z"/>
  <path class="cls-1" d="m50.05,22.71V0h15.83v4.46h-10.34v4.66h9.54v4.47h-9.54v4.67h10.34v4.46h-15.83,0Z"/>
  <path class="cls-1" d="m68.42,4.46V0h19.19v4.46h-6.89v18.25h-5.41V4.46h-6.9.01Z"/>
  <path class="cls-1" d="m90.14,22.71V0h9.38c1.7,0,3.17.31,4.41.92,1.24.61,2.19,1.48,2.86,2.62s1.01,2.48,1.01,4.03-.34,2.91-1.03,4.01c-.69,1.1-1.66,1.93-2.93,2.5-1.26.57-2.76.86-4.49.86h-5.93v-4.32h4.91c.83,0,1.52-.11,2.08-.32.56-.22.98-.55,1.27-1,.29-.45.43-1.02.43-1.73s-.14-1.28-.43-1.75c-.29-.46-.71-.81-1.27-1.04s-1.25-.35-2.07-.35h-2.71v18.28h-5.49Zm12.78-10.38l5.65,10.38h-5.98l-5.54-10.38h5.88,0Z"/>
  <path class="cls-1" d="m116.14,0v22.71h-5.49V0h5.49Z"/>
  <path class="cls-1" d="m119.42,22.71V0h15.83v4.46h-10.34v4.66h9.54v4.47h-9.54v4.67h10.34v4.46h-15.83Z"/>
  <path class="cls-1" d="m138.53,22.71V0h9.47c1.7,0,3.12.24,4.27.72,1.15.48,2.01,1.15,2.59,2.02.58.87.87,1.87.87,3.01,0,.86-.18,1.63-.54,2.31-.36.68-.86,1.24-1.5,1.68-.63.45-1.37.75-2.2.93v.22c.92.04,1.76.29,2.55.74.78.45,1.4,1.08,1.88,1.88s.71,1.75.71,2.84c0,1.22-.31,2.31-.93,3.26-.62.96-1.52,1.71-2.69,2.26-1.18.55-2.6.83-4.28.83h-10.2Zm5.49-13.36h3.04c.6,0,1.13-.1,1.6-.3s.83-.49,1.09-.87.39-.83.39-1.36c0-.76-.27-1.36-.81-1.79s-1.27-.65-2.18-.65h-3.13v4.98h0Zm0,8.94h3.39c1.19,0,2.07-.23,2.63-.68s.85-1.08.85-1.89c0-.58-.14-1.09-.41-1.51-.27-.43-.66-.75-1.16-.99-.51-.23-1.11-.35-1.81-.35h-3.49v5.41h0Z"/>
  <path class="cls-1" d="m179.4,0h5.48v14.64c0,1.69-.4,3.17-1.21,4.42-.81,1.25-1.93,2.22-3.37,2.9-1.44.69-3.11,1.03-5.02,1.03s-3.61-.34-5.05-1.03c-1.44-.68-2.56-1.65-3.36-2.9s-1.2-2.73-1.2-4.42V0h5.49v14.17c0,.78.17,1.48.52,2.1.34.61.82,1.09,1.45,1.44.62.35,1.34.52,2.16.52s1.54-.17,2.16-.52,1.1-.83,1.45-1.44.52-1.31.52-2.1V0h-.02Z"/>
  <path class="cls-1" d="m207.48,0v22.71h-4.66l-9.03-13.1h-.14v13.1h-5.49V0h4.72l8.94,13.08h.19V0h5.48,0Z"/>
  <path class="cls-1" d="m219.15,22.71h-8.39V0h8.38c2.31,0,4.31.46,5.98,1.36,1.68.91,2.97,2.21,3.87,3.9.91,1.7,1.36,3.72,1.36,6.08s-.45,4.4-1.36,6.1-2.19,3-3.87,3.91-3.67,1.36-5.97,1.36Zm-2.91-4.68h2.7c1.27,0,2.35-.22,3.23-.65.88-.43,1.55-1.14,2-2.12.46-.98.68-2.29.68-3.92s-.23-2.94-.69-3.91-1.14-1.67-2.02-2.11c-.89-.43-1.99-.65-3.29-.65h-2.62v13.35h.01Z"/>
  <path class="cls-1" d="m29.48,52.25v-22.38h5.41v8.98h8.82v-8.98h5.4v22.38h-5.4v-8.99h-8.82v8.99h-5.41Z"/>
  <path class="cls-1" d="m73.46,41.06c0,2.46-.48,4.55-1.42,6.26s-2.23,3.01-3.84,3.9c-1.61.89-3.42,1.34-5.43,1.34s-3.82-.45-5.43-1.35c-1.61-.9-2.88-2.2-3.83-3.91-.94-1.71-1.42-3.79-1.42-6.24s.47-4.55,1.42-6.26c.94-1.71,2.22-3.01,3.83-3.9s3.42-1.33,5.43-1.33,3.81.44,5.43,1.33c1.61.89,2.89,2.19,3.84,3.9s1.42,3.8,1.42,6.26Zm-5.53,0c0-1.46-.21-2.69-.62-3.69-.41-1.01-1-1.77-1.77-2.29s-1.69-.78-2.77-.78-1.99.26-2.77.78-1.36,1.28-1.78,2.29c-.41,1-.62,2.23-.62,3.69s.21,2.69.62,3.69,1,1.77,1.78,2.28,1.69.78,2.77.78,2-.26,2.77-.78,1.36-1.28,1.77-2.28.62-2.24.62-3.69Z"/>
  <path class="cls-1" d="m88.55,36.58c-.07-.8-.39-1.43-.97-1.87-.57-.45-1.38-.67-2.44-.67-.7,0-1.28.09-1.75.27s-.82.43-1.05.75-.35.68-.36,1.09c-.02.34.05.63.2.89s.37.48.66.67.63.36,1.04.51c.41.15.87.27,1.37.38l1.92.44c1.11.24,2.09.56,2.93.96.85.4,1.57.88,2.14,1.43s1.02,1.19,1.32,1.91.45,1.53.46,2.43c0,1.41-.37,2.63-1.07,3.64-.71,1.01-1.72,1.79-3.04,2.33-1.32.54-2.92.81-4.78.81s-3.5-.28-4.9-.84c-1.39-.56-2.47-1.41-3.24-2.56-.77-1.14-1.17-2.59-1.19-4.34h5.18c.05.72.24,1.32.58,1.8s.81.84,1.42,1.09,1.3.37,2.09.37c.73,0,1.35-.1,1.86-.29.51-.2.91-.47,1.19-.82.27-.35.42-.75.42-1.2,0-.42-.14-.78-.39-1.09-.26-.3-.65-.56-1.17-.79-.53-.22-1.2-.43-2.02-.62l-2.34-.55c-1.94-.44-3.46-1.16-4.58-2.16s-1.67-2.34-1.66-4.04c0-1.38.37-2.6,1.12-3.64s1.79-1.86,3.11-2.44,2.84-.87,4.54-.87,3.24.29,4.52.88c1.28.59,2.27,1.41,2.98,2.46.71,1.06,1.07,2.28,1.08,3.67h-5.18Z"/>
  <path class="cls-1" d="m95.89,34.26v-4.4h18.92v4.4h-6.79v17.99h-5.33v-17.99s-6.8,0-6.8,0Z"/>
  <path class="cls-1" d="m122.72,29.87v22.38h-5.41v-22.38h5.41Z"/>
  <path class="cls-1" d="m145.01,29.87v22.38h-4.59l-8.91-12.92h-.14v12.92h-5.41v-22.38h4.65l8.81,12.9h.18v-12.9h5.41Z"/>
  <path class="cls-1" d="m162.93,37.18c-.12-.46-.3-.86-.55-1.22-.24-.35-.53-.65-.88-.9s-.75-.44-1.2-.56c-.45-.13-.95-.19-1.49-.19-1.08,0-2.02.27-2.81.79s-1.4,1.29-1.83,2.29c-.43,1-.64,2.22-.64,3.64s.21,2.66.62,3.67c.41,1.01,1.02,1.79,1.8,2.32.79.53,1.74.8,2.86.8.99,0,1.83-.16,2.52-.49s1.21-.79,1.57-1.38c.36-.6.54-1.3.54-2.11l1.01.12h-5.44v-3.95h9.65v2.96c0,2.01-.43,3.72-1.27,5.15-.85,1.43-2.01,2.52-3.5,3.29-1.48.76-3.19,1.15-5.11,1.15-2.13,0-4.01-.46-5.63-1.39-1.62-.92-2.88-2.24-3.78-3.96-.9-1.72-1.36-3.75-1.36-6.12,0-1.84.27-3.47.82-4.89.55-1.43,1.31-2.63,2.29-3.62.98-.99,2.12-1.74,3.41-2.25,1.29-.51,2.69-.76,4.18-.76,1.3,0,2.5.18,3.62.56s2.11.9,2.97,1.57c.86.68,1.57,1.48,2.1,2.42.54.93.88,1.95,1.01,3.07h-5.48,0Z"/>
  <path class="cls-1" d="m34.88,59.43v22.38h-5.41v-22.38h5.41Z"/>
  <path class="cls-1" d="m57.17,59.43v22.38h-4.59l-8.91-12.92h-.14v12.92h-5.41v-22.38h4.65l8.81,12.9h.18v-12.9h5.41Z"/>
  <path class="cls-1" d="m75.14,81.81h-8.27v-22.38h8.26c2.28,0,4.25.45,5.9,1.34s2.92,2.18,3.82,3.85c.9,1.67,1.35,3.67,1.35,5.99s-.45,4.34-1.34,6.01-2.16,2.96-3.82,3.85c-1.65.89-3.62,1.34-5.89,1.34h-.01Zm-2.87-4.61h2.66c1.25,0,2.31-.21,3.19-.64.87-.42,1.53-1.12,1.98-2.09.45-.97.67-2.25.67-3.86s-.23-2.89-.68-3.85-1.12-1.65-2-2.08-1.96-.64-3.24-.64h-2.58s0,13.16,0,13.16Z"/>
  <path class="cls-1" d="m89.18,81.81v-22.38h15.6v4.4h-10.2v4.59h9.4v4.4h-9.4v4.6h10.2v4.39h-15.6Z"/>
  <path class="cls-1" d="m121.56,59.43h5.4v14.44c0,1.67-.4,3.12-1.19,4.36-.8,1.24-1.9,2.19-3.32,2.86-1.42.68-3.07,1.01-4.95,1.01s-3.56-.34-4.98-1.01c-1.42-.67-2.53-1.63-3.31-2.86-.79-1.24-1.18-2.69-1.18-4.36v-14.44h5.41v13.97c0,.77.17,1.46.51,2.07.34.6.81,1.08,1.43,1.42.61.34,1.32.51,2.13.51s1.52-.17,2.13-.51,1.08-.81,1.43-1.42.51-1.29.51-2.07v-13.97h-.02Z"/>
  <path class="cls-1" d="m129.46,63.83v-4.4h18.92v4.4h-6.79v17.99h-5.33v-17.99h-6.8Z"/>
  <path class="cls-1" d="m162.98,66.14c-.07-.8-.39-1.43-.97-1.87-.57-.45-1.38-.67-2.44-.67-.7,0-1.28.09-1.75.27-.47.18-.82.43-1.05.75s-.35.68-.36,1.09c-.02.34.05.63.2.89s.37.48.66.67c.29.19.63.36,1.04.51.41.15.87.27,1.37.38l1.92.44c1.11.24,2.09.56,2.93.96.85.4,1.57.88,2.14,1.43s1.02,1.19,1.32,1.91.45,1.53.46,2.43c0,1.41-.37,2.63-1.07,3.64-.71,1.01-1.72,1.79-3.04,2.33-1.32.54-2.92.81-4.78.81s-3.5-.28-4.9-.84c-1.39-.56-2.47-1.41-3.24-2.56-.77-1.14-1.17-2.59-1.19-4.34h5.18c.05.72.24,1.32.58,1.8s.81.84,1.42,1.09,1.3.37,2.09.37c.73,0,1.35-.1,1.86-.29.51-.2.91-.47,1.19-.82.27-.35.42-.75.42-1.2,0-.42-.14-.78-.39-1.09-.26-.3-.65-.56-1.17-.79-.53-.22-1.2-.43-2.02-.62l-2.34-.55c-1.94-.44-3.46-1.16-4.58-2.16s-1.67-2.34-1.66-4.04c0-1.38.37-2.6,1.12-3.64s1.79-1.86,3.11-2.44,2.84-.87,4.54-.87,3.24.29,4.52.88,2.27,1.41,2.98,2.46c.71,1.06,1.07,2.28,1.08,3.67h-5.18,0Z"/>
  <path class="cls-1" d="m191.37,67.54h-5.47c-.07-.56-.22-1.07-.45-1.52-.22-.45-.52-.84-.9-1.16-.37-.32-.81-.57-1.32-.74-.5-.17-1.06-.26-1.68-.26-1.09,0-2.02.27-2.8.8s-1.38,1.3-1.8,2.31c-.42,1.01-.63,2.22-.63,3.65s.21,2.73.64,3.73c.42,1,1.03,1.76,1.8,2.26.78.51,1.69.76,2.76.76.6,0,1.14-.08,1.64-.23.49-.15.92-.38,1.3-.67s.68-.65.93-1.08c.24-.43.41-.91.51-1.45l5.47.03c-.1.99-.38,1.97-.86,2.93s-1.13,1.84-1.96,2.63-1.84,1.42-3.03,1.89-2.55.7-4.09.7c-2.03,0-3.84-.45-5.44-1.34s-2.86-2.2-3.78-3.91c-.93-1.71-1.39-3.8-1.39-6.25s.47-4.55,1.41-6.26,2.21-3.01,3.82-3.9c1.6-.89,3.4-1.33,5.39-1.33,1.36,0,2.61.19,3.76.56s2.16.92,3.04,1.64c.88.72,1.58,1.6,2.13,2.64.55,1.04.89,2.23,1.02,3.57h-.02Z"/>
  <path class="cls-1" d="m194.3,81.81v-22.38h5.41v8.98h8.82v-8.98h5.4v22.38h-5.4v-8.99h-8.82v8.99h-5.41,0Z"/>
  <path class="cls-1" d="m217.16,81.81v-22.38h5.41v17.99h9.31v4.39h-14.72Z"/>
  <path class="cls-1" d="m239.65,81.81h-5.81l7.55-22.38h7.2l7.55,22.38h-5.81l-5.26-16.74h-.17l-5.25,16.74Zm-.78-8.81h12.15v4.11h-12.15v-4.11Z"/>
  <path class="cls-1" d="m277.45,59.43v22.38h-4.59l-8.91-12.92h-.14v12.92h-5.41v-22.38h4.65l8.81,12.9h.18v-12.9h5.41Z"/>
  <path class="cls-1" d="m288.95,81.81h-8.27v-22.38h8.26c2.28,0,4.25.45,5.9,1.34s2.92,2.18,3.82,3.85c.9,1.67,1.35,3.67,1.35,5.99s-.45,4.34-1.34,6.01-2.16,2.96-3.82,3.85c-1.65.89-3.62,1.34-5.89,1.34h-.01Zm-2.87-4.61h2.66c1.25,0,2.31-.21,3.19-.64.87-.42,1.53-1.12,1.98-2.09.45-.97.67-2.25.67-3.86s-.23-2.89-.68-3.85c-.45-.96-1.12-1.65-2-2.08s-1.96-.64-3.24-.64h-2.58v13.16h0Z"/>
</svg>